<?xml version="1.0" encoding="utf-8"?>
<!-- Generator: Adobe Illustrator 19.2.1, SVG Export Plug-In . SVG Version: 6.00 Build 0)  -->
<svg version="1.1" id="Layer_1" xmlns="http://www.w3.org/2000/svg" xmlns:xlink="http://www.w3.org/1999/xlink" x="0px" y="0px"
	 viewBox="0 0 2270 915" style="enable-background:new 0 0 2270 915;" xml:space="preserve">
<style type="text/css">
	.st0{fill:#ED3125;}
</style>
<path d="M338,323.5V432h57.3c61.4,0,80.1-0.8,95.9-4c27.2-5.6,43.3-18.9,48.3-40.1c1.9-8.3,1.9-24.8,0-32.4
	c-3.7-14-13.2-25.7-27.3-33.6l-8.2-4.6l6.6-3.9c16.5-9.6,23.4-21.8,23.4-41.4c0-17.6-4.3-29.5-13.9-39c-9.6-9.4-24-15-44-17
	c-5.9-0.6-37.5-1-74.2-1H338V323.5z M480.3,239.3c14.3,3.4,22,8.5,26.4,17.5c2.4,4.9,2.8,6.9,2.8,14.2c0,4.7-0.6,10.3-1.4,12.5
	c-2,5.7-10.1,13.8-16.9,16.8c-14.4,6.5-27.9,7.7-86.9,7.7H363v-35.6v-35.6l55.3,0.5C464.5,237.6,474.6,238,480.3,239.3z M488,332.7
	c19,6.5,27.9,17.9,28.1,36.4c0.2,20.9-9.9,32.7-32.3,37.6c-6,1.3-17.1,1.6-64,2l-56.8,0.5v-39.7v-39.6l59.3,0.3
	C480.2,330.5,481.6,330.6,488,332.7z"/>
<path d="M727,323.5V432h12h12V323.5V215h-12h-12V323.5z"/>
<path d="M1020,229.2c-3.8,7.9-27.3,56.7-52.3,108.5L922.2,432h13.7h13.6l46-98c25.3-53.8,46.3-97.6,46.7-97.2
	c0.4,0.4,21,44.1,45.7,97.2c24.8,53,45.5,96.8,45.9,97.2c0.5,0.5,6.8,0.7,14,0.6l13.2-0.3l-52-108l-51.9-108l-15.1-0.3l-15.1-0.3
	L1020,229.2z"/>
<path d="M1333,323.5V432h11h11l0.1-96.8c0-65.3,0.3-96.2,1-95.2c0.6,0.8,18.7,44.2,40.3,96.5l39.2,95h10.4h10.4l39.5-96.3
	c21.7-52.9,39.9-96.2,40.3-96.2c0.4,0,0.8,43.4,0.8,96.5V432h11h11V323.5V215l-19.1,0.2l-19.1,0.3L1484,305
	c-20.3,49.2-37.2,90.1-37.7,90.8c-0.5,0.9-13.6-29.6-38.3-89.7l-37.5-91.1h-18.7H1333V323.5z"/>
<path d="M1752,323.5V432h12h12l0.2-46.3l0.3-46.2l59-0.6l59-0.5l9.7-2.6c19.7-5.4,32.4-14.7,39.1-28.8c1.9-4.1,4-9.9,4.6-12.8
	c1.6-7.9,1.4-28.7-0.4-35.7c-6.4-25.1-26.3-39.1-60.4-42.5c-5.8-0.6-37.2-1-72.7-1H1752V323.5z M1893.9,240.4
	c15.3,3.6,24.8,10.1,29.2,19.9c2.1,4.5,2.4,6.7,2.4,17.2c0,13.9-1.5,18.5-8.4,25.4c-5,5-10,7.6-19.9,10.4c-7.4,2-10,2.1-64.4,2.5
	l-56.8,0.3v-38.4c0-21.1,0.3-38.7,0.7-39.1c0.4-0.4,25.3-0.6,55.3-0.3C1879,238.6,1887.5,238.9,1893.9,240.4z"/>
<path d="M1999.7,217.5c-12,4.5-17.9,16.3-14.3,28.7c2.9,10.2,11.4,16.2,22.6,16.2c13.6,0,23.1-9.3,23.2-22.9
	c0-7.3-3.3-14.7-8.3-18.4C2016.3,216.2,2007.2,214.8,1999.7,217.5z M2016.6,222c12,5.9,13.9,22.9,3.4,32.4c-9,8.1-23.7,5.1-29-5.9
	c-3-6.2-2.5-14.6,1.2-20.3C1997.3,220.6,2008,217.9,2016.6,222z"/>
<path d="M1999,239.5c0,12.8,0.1,13.5,2,13.5c1.8,0,2-0.7,2-6c0-5.6,0.2-6,2.3-6c1.6,0,3.2,1.6,6,6c2.5,4.1,4.3,6,5.7,6
	c2.6,0,2.6-0.2-1.5-6.3l-3.5-5.2l2.5-1.2c5-2.7,5.9-8,2-11.8c-2.1-2.2-3.3-2.5-10-2.5h-7.5V239.5z"/>
<path class="st0" d="M1034.4,351.9c-19.1,4.9-32.5,25.5-29.3,45c3.6,22.6,24.1,37.8,46,34.2c13.4-2.2,24.1-10,29.9-21.7
	c10.6-21.6,1.2-46.2-21.5-56.3C1056,351.5,1038.9,350.7,1034.4,351.9z"/>
<path class="st0" d="M224.6,515.6c-1.9,1.8-1.9,2-0.6,4.5c1.1,1.9,12.4,1.9,911,1.9h909.9l1.1-2.1c0.9-1.6,0.8-2.5-0.6-4
	c-1.7-1.9-16.1-1.9-910.5-1.9C310.1,514,226,514.1,224.6,515.6z"/>
<path d="M371.5,606c-18.5,2.3-27.5,9.8-27.5,22.9c0,5.8,1,8.2,4.8,12.3c4.1,4.5,11.8,6.6,32.5,9.2c23.6,3,28.6,4.6,31.3,9.8
	c5.1,9.9-3.7,18.6-21,20.8c-15.7,2-29.9-2-39.1-11l-5-4.9l-3.2,2.9c-1.8,1.7-3.3,3.4-3.3,3.9c0,2,9.8,9.5,16.5,12.7
	c13.3,6.4,35,6.9,49.9,1.4c14.4-5.4,20.7-20.1,13.6-31.6c-4.4-7.1-12.4-9.8-36-12.4c-9.8-1.1-19.9-2.7-22.6-3.7
	c-11.3-4.2-12.1-15.8-1.6-21.2c7.9-4,21.3-5.1,32-2.6c7.8,1.9,11.4,3.6,17.5,8.7l4.9,4.1l3.1-3.1l3.1-3.1l-3.8-3.6
	C407.9,608.4,389.2,603.7,371.5,606z"/>
<path d="M868.2,606.1c-9,1.1-18.3,5.1-22.2,9.5c-5.7,6.5-6.4,17.6-1.5,23.9c4.5,6,12.7,8.6,34.7,11c22.7,2.5,28.6,4.5,31.7,10.9
	c2.9,6-2.2,14-10.9,17.1c-17.5,6.2-38.9,2.7-49.7-8.1l-5.3-5.3l-3.6,3.1l-3.5,3.1l4.7,4.8c9.4,9.5,20,13.3,37.9,13.3
	c18,0.1,28.5-3.2,35.8-11.3c4-4.4,5.2-8.7,4.5-16.2c-0.6-5.6-2.8-9.3-7.8-12.7c-5.1-3.5-12.1-5.1-30.2-7.2
	c-20.6-2.3-24.3-3.3-28.5-7.5c-4.4-4.4-4.5-9-0.3-13.9c4.5-5,11.1-7,24-7.1c13.5,0,21.6,2.6,28.9,9.1l5,4.5l3.7-2.7l3.7-2.8
	l-4.7-4.3C904.2,607.9,887.2,603.8,868.2,606.1z"/>
<path d="M1876,606c-18.5,2.5-27,9.7-27,23c0,7.9,2.2,11.7,8.7,15.2c5.7,3.1,11.3,4.3,29.8,6.3c17.9,2,23.9,3.7,28.2,8
	c3.9,3.9,4.3,8.1,1.2,13.1c-5.7,9.2-30,12.9-46.7,7c-5.3-1.9-12.2-6.8-15.1-10.7l-2.2-3l-4.1,3.3l-4.1,3.2l5.6,5.2
	c6.9,6.4,14.7,10.2,24.6,12c16.9,3,33.8,0.5,44.4-6.4c8.6-5.7,11.8-18.1,6.9-26.7c-4.6-8-11.8-10.7-36.1-13.5
	c-18.9-2.1-25.6-3.8-29-7.4c-5.1-5.5-2.9-13.6,4.9-17.6c6.4-3.2,18.3-4.6,27.5-3.2c9.7,1.5,15.1,3.9,20.9,9.2
	c4.8,4.4,6.1,4.5,9.9,0.3c1.6-1.9,1.6-2.1-1.8-5.5C1913,608.4,1894.3,603.6,1876,606z"/>
<path d="M606.2,628.1c10.1,11.7,19.5,22.6,21,24.3c2.7,3.1,2.7,3.1,2.8,19.3V688h4.5h4.5v-16.3c0.1-16.2,0.1-16.2,2.8-19.3
	c1.5-1.7,10.1-11.6,19.1-22c9-10.4,17.3-19.9,18.4-21.2l2-2.2h-6.4h-6.4L652,626.4c-9.1,10.7-16.8,19.5-17.2,19.5
	c-0.4,0.1-8.3-8.7-17.5-19.4L600.6,607h-6.4h-6.3L606.2,628.1z"/>
<path d="M1085,611.5v4.5h19.5h19.5v36v36h5h5v-36v-36h19.5h19.5v-4.5V607h-44h-44V611.5z"/>
<path d="M1342,647.5V688h36.5h36.5v-4v-4l-31.7-0.2l-31.8-0.3V665v-14.5l25.8-0.3l25.7-0.2v-4v-4l-25.7-0.2l-25.8-0.3l-0.3-12.8
	l-0.3-12.7h31.6h31.5v-4.5V607h-36h-36V647.5z"/>
<path d="M1585,647.5V688h4h4v-35.5c0-19.5,0.3-35.5,0.8-35.5c0.4,0,7.7,16,16.2,35.5l15.5,35.4l4.1,0.1h4.1l15.3-35
	c8.4-19.3,15.7-35.3,16.2-35.6c0.4-0.3,0.8,15.5,0.8,35V688h4h4v-40.5V607h-7.2l-7.3,0.1l-13.9,31.9c-7.7,17.5-14.5,32.8-15.1,34
	c-1,1.8-3-2.4-16-32l-15-34h-7.2h-7.3V647.5z"/>
</svg>
