<?xml version="1.0" encoding="UTF-8" standalone="no"?>
<svg width="2000px" height="1500px" viewBox="0 0 2000 1500" version="1.1" xmlns="http://www.w3.org/2000/svg" xmlns:xlink="http://www.w3.org/1999/xlink" xmlns:sketch="http://www.bohemiancoding.com/sketch/ns">
    <!-- Generator: Sketch 3.4.4 (17249) - http://www.bohemiancoding.com/sketch -->
    <title>DarkCurves</title>
    <desc>Created with Sketch.</desc>
    <defs>
        <radialGradient cx="54.0778236%" cy="64.0954066%" fx="54.0778236%" fy="64.0954066%" r="54.9581026%" id="radialGradient-1">
            <stop stop-color="#7D191A" offset="0%"></stop>
            <stop stop-color="#FFFFFF" stop-opacity="0" offset="100%"></stop>
        </radialGradient>
    </defs>
    <g id="Web" stroke="none" stroke-width="1" fill="none" fill-rule="evenodd" sketch:type="MSPage">
        <g id="DarkCurves" sketch:type="MSArtboardGroup" stroke="url(#radialGradient-1)" opacity="0.199999988">
            <path d="M-177.328741,1678.75832 C-177.328741,1678.75832 893.081219,444.938907 1620.05381,1376.2369 C2181.88991,2307.53489 2437.87355,1893.46877 2437.87355,1893.46877 M-174.129118,1690.71266 C-174.129118,1690.71266 894.786769,456.893243 1620.5451,1388.19123 C2181.16694,2319.48922 2436.91503,1905.42311 2436.91503,1905.42311 M-170.93346,1702.667 C-170.93346,1702.667 896.488355,468.84758 1621.03242,1400.14557 C2180.43999,2331.44356 2435.95254,1917.37745 2435.95254,1917.37745 M-167.741765,1714.62133 C-167.741765,1714.62133 898.185977,480.801916 1621.51578,1412.09991 C2179.70909,2343.39789 2434.9861,1929.33178 2434.9861,1929.33178 M-180.532327,1666.80399 C-180.532327,1666.80399 891.371706,432.98457 1619.55856,1364.28256 C2182.60893,2295.58055 2438.8281,1881.51444 2438.8281,1881.51444 M-183.739877,1654.84965 C-183.739877,1654.84965 889.658229,421.030234 1619.05935,1352.32822 C2183.32398,2283.62621 2439.77869,1869.5601 2439.77869,1869.5601 M-186.951391,1642.89532 C-186.951391,1642.89532 887.940788,409.075898 1618.55617,1340.37389 C2184.03506,2271.67188 2440.72532,1857.60576 2440.72532,1857.60576 M-190.166869,1630.94098 C-190.166869,1630.94098 886.219383,397.121561 1618.04903,1328.41955 C2184.74219,2259.71754 2441.66798,1845.65143 2441.66798,1845.65143 M-193.386311,1618.98664 C-193.386311,1618.98664 884.494014,385.167225 1617.53792,1316.46521 C2185.44535,2247.7632 2442.60668,1833.69709 2442.60668,1833.69709 M-196.609716,1607.03231 C-196.609716,1607.03231 882.764682,373.212889 1617.02285,1304.51088 C2186.14454,2235.80887 2443.54142,1821.74275 2443.54142,1821.74275 M-199.837086,1595.07797 C-199.837086,1595.07797 881.031385,361.258552 1616.50382,1292.55654 C2186.83977,2223.85453 2444.47219,1809.78842 2444.47219,1809.78842 M-203.068419,1583.12363 C-203.068419,1583.12363 879.294125,349.304216 1615.98083,1280.6022 C2187.53104,2211.90019 2445.399,1797.83408 2445.399,1797.83408 M-206.303716,1571.1693 C-206.303716,1571.1693 877.552901,337.349879 1615.45387,1268.64787 C2188.21834,2199.94586 2446.32184,1785.87974 2446.32184,1785.87974 M-209.542977,1559.21496 C-209.542977,1559.21496 875.807713,325.395543 1614.92294,1256.69353 C2188.90168,2187.99152 2447.24073,1773.92541 2447.24073,1773.92541 M-212.786201,1547.26062 C-212.786201,1547.26062 874.058562,313.441207 1614.38805,1244.7392 C2189.58106,2176.03718 2448.15564,1761.97107 2448.15564,1761.97107 M-216.03339,1535.30629 C-216.03339,1535.30629 872.305446,301.48687 1613.8492,1232.78486 C2190.25647,2164.08285 2449.0666,1750.01674 2449.0666,1750.01674 M-219.284542,1523.35195 C-219.284542,1523.35195 870.548367,289.532534 1613.30639,1220.83052 C2190.92792,2152.12851 2449.97358,1738.0624 2449.97358,1738.0624 M-222.539658,1511.39762 C-222.539658,1511.39762 868.787324,277.578198 1612.75961,1208.87619 C2191.5954,2140.17418 2450.87661,1726.10806 2450.87661,1726.10806 M-225.798738,1499.44328 C-225.798738,1499.44328 867.022317,265.623861 1612.20886,1196.92185 C2192.25892,2128.21984 2451.77567,1714.15373 2451.77567,1714.15373 M-229.061782,1487.48894 C-229.061782,1487.48894 865.253346,253.669525 1611.65416,1184.96751 C2192.91848,2116.2655 2452.67077,1702.19939 2452.67077,1702.19939 M-232.32879,1475.53461 C-232.32879,1475.53461 863.480411,241.715188 1611.09548,1173.01318 C2193.57407,2104.31117 2453.5619,1690.24505 2453.5619,1690.24505 M-235.599761,1463.58027 C-235.599761,1463.58027 861.703513,229.760852 1610.53285,1161.05884 C2194.2257,2092.35683 2454.44907,1678.29072 2454.44907,1678.29072 M-238.874696,1451.62593 C-238.874696,1451.62593 859.92265,217.806516 1609.96625,1149.1045 C2194.87337,2080.40249 2455.33228,1666.33638 2455.33228,1666.33638 M-242.153596,1439.6716 C-242.153596,1439.6716 858.137824,205.852179 1609.39569,1137.15017 C2195.51707,2068.44816 2456.21152,1654.38204 2456.21152,1654.38204 M-245.436459,1427.71726 C-245.436459,1427.71726 856.349034,193.897843 1608.82116,1125.19583 C2196.1568,2056.49382 2457.0868,1642.42771 2457.0868,1642.42771 M-248.723285,1415.76292 C-248.723285,1415.76292 854.55628,181.943507 1608.24267,1113.2415 C2196.79258,2044.53948 2457.95812,1630.47337 2457.95812,1630.47337 M-252.014076,1403.80859 C-252.014076,1403.80859 852.759563,169.98917 1607.66022,1101.28716 C2197.42439,2032.58515 2458.82547,1618.51904 2458.82547,1618.51904 M-255.308831,1391.85425 C-255.308831,1391.85425 850.958881,158.034834 1607.0738,1089.33282 C2198.05223,2020.63081 2459.68885,1606.5647 2459.68885,1606.5647 M-258.607549,1379.89992 C-258.607549,1379.89992 849.154236,146.080497 1606.48342,1077.37849 C2198.67611,2008.67648 2460.54828,1594.61036 2460.54828,1594.61036 M-261.910231,1367.94558 C-261.910231,1367.94558 847.345627,134.126161 1605.88907,1065.42415 C2199.29603,1996.72214 2461.40374,1582.65603 2461.40374,1582.65603 M-265.216877,1355.99124 C-265.216877,1355.99124 845.533054,122.171825 1605.29076,1053.46981 C2199.91199,1984.7678 2462.25523,1570.70169 2462.25523,1570.70169 M-268.527487,1344.03691 C-268.527487,1344.03691 843.716517,110.217488 1604.68849,1041.51548 C2200.52398,1972.81347 2463.10276,1558.74735 2463.10276,1558.74735 M-271.84206,1332.08257 C-271.84206,1332.08257 841.896016,98.2631519 1604.08225,1029.56114 C2201.132,1960.85913 2463.94633,1546.79302 2463.94633,1546.79302 M-275.160598,1320.12823 C-275.160598,1320.12823 840.071552,86.3088155 1603.47205,1017.6068 C2201.73607,1948.90479 2464.78593,1534.83868 2464.78593,1534.83868 M-278.483099,1308.1739 C-278.483099,1308.1739 838.243123,74.3544791 1602.85789,1005.65247 C2202.33617,1936.95046 2465.62158,1522.88434 2465.62158,1522.88434 M-281.809564,1296.21956 C-281.809564,1296.21956 836.410731,62.4001428 1602.23976,993.698132 C2202.9323,1924.99612 2466.45325,1510.93001 2466.45325,1510.93001 M-285.139993,1284.26522 C-285.139993,1284.26522 834.574375,50.4458064 1601.61767,981.743796 C2203.52447,1913.04178 2467.28096,1498.97567 2467.28096,1498.97567 M-288.474386,1272.31089 C-288.474386,1272.31089 832.734055,38.49147 1600.99161,969.789459 C2204.11268,1901.08745 2468.10471,1487.02134 2468.10471,1487.02134 M-291.812743,1260.35655 C-291.812743,1260.35655 830.889772,26.5371336 1600.36159,957.835123 C2204.69692,1889.13311 2468.9245,1475.067 2468.9245,1475.067 M-295.155063,1248.40222 C-295.155063,1248.40222 829.041524,14.5827972 1599.72761,945.880786 C2205.2772,1877.17878 2469.74032,1463.11266 2469.74032,1463.11266 M-298.501347,1236.44788 C-298.501347,1236.44788 827.189313,2.62846087 1599.08966,933.92645 C2205.85352,1865.22444 2470.55218,1451.15833 2470.55218,1451.15833 M-301.851595,1224.49354 C-301.851595,1224.49354 825.333138,-9.32587551 1598.44775,921.972114 C2206.42587,1853.2701 2471.36007,1439.20399 2471.36007,1439.20399 M-305.205807,1212.53921 C-305.205807,1212.53921 823.472999,-21.2802119 1597.80187,910.017777 C2206.99426,1841.31577 2472.164,1427.24965 2472.164,1427.24965 M-308.563983,1200.58487 C-308.563983,1200.58487 821.608896,-33.2345483 1597.15203,898.063441 C2207.55869,1829.36143 2472.96396,1415.29532 2472.96396,1415.29532 M-311.926123,1188.63053 C-311.926123,1188.63053 819.740829,-45.1888846 1596.49823,886.109104 C2208.11915,1817.40709 2473.75997,1403.34098 2473.75997,1403.34098 M-315.292226,1176.6762 C-315.292226,1176.6762 817.868799,-57.143221 1595.84046,874.154768 C2208.67564,1805.45276 2474.552,1391.38664 2474.552,1391.38664 M-318.662293,1164.72186 C-318.662293,1164.72186 815.992805,-69.0975574 1595.17873,862.200432 C2209.22818,1793.49842 2475.34008,1379.43231 2475.34008,1379.43231 M-322.036324,1152.76752 C-322.036324,1152.76752 814.112847,-81.0518938 1594.51304,850.246095 C2209.77675,1781.54408 2476.12419,1367.47797 2476.12419,1367.47797 M-325.414319,1140.81319 C-325.414319,1140.81319 812.228925,-93.0062301 1593.84338,838.291759 C2210.32135,1769.58975 2476.90434,1355.52364 2476.90434,1355.52364 M-328.796278,1128.85885 C-328.796278,1128.85885 810.341039,-104.960567 1593.16976,826.337423 C2210.86199,1757.63541 2477.68052,1343.5693 2477.68052,1343.5693 M-332.182201,1116.90452 C-332.182201,1116.90452 808.449189,-116.914903 1592.49217,814.383086 C2211.39867,1745.68108 2478.45274,1331.61496 2478.45274,1331.61496 M-335.572087,1104.95018 C-335.572087,1104.95018 806.553376,-128.869239 1591.81062,802.42875 C2211.93138,1733.72674 2479.22099,1319.66063 2479.22099,1319.66063 M-338.965937,1092.99584 C-338.965937,1092.99584 804.653598,-140.823576 1591.12511,790.474413 C2212.46013,1721.7724 2479.98528,1307.70629 2479.98528,1307.70629 M-342.363751,1081.04151 C-342.363751,1081.04151 802.749857,-152.777912 1590.43563,778.520077 C2212.98492,1709.81807 2480.74561,1295.75195 2480.74561,1295.75195 M-345.765529,1069.08717 C-345.765529,1069.08717 800.842152,-164.732248 1589.74219,766.565741 C2213.50574,1697.86373 2481.50198,1283.79762 2481.50198,1283.79762 M-349.171271,1057.13283 C-349.171271,1057.13283 798.930484,-176.686585 1589.04479,754.611404 C2214.0226,1685.90939 2482.25438,1271.84328 2482.25438,1271.84328 M-352.580977,1045.1785 C-352.580977,1045.1785 797.014851,-188.640921 1588.34342,742.657068 C2214.5355,1673.95506 2483.00281,1259.88894 2483.00281,1259.88894 M-355.994646,1033.22416 C-355.994646,1033.22416 795.095254,-200.595258 1587.63808,730.702732 C2215.04443,1662.00072 2483.74728,1247.93461 2483.74728,1247.93461 M-359.412279,1021.26982 C-359.412279,1021.26982 793.171694,-212.549594 1586.92879,718.748395 C2215.54939,1650.04638 2484.48779,1235.98027 2484.48779,1235.98027 M-362.833876,1009.31549 C-362.833876,1009.31549 791.24417,-224.50393 1586.21553,706.794059 C2216.0504,1638.09205 2485.22434,1224.02594 2485.22434,1224.02594 M-366.259437,997.361151 C-366.259437,997.361151 789.312682,-236.458267 1585.4983,694.839722 C2216.54744,1626.13771 2485.95692,1212.0716 2485.95692,1212.0716 M-369.688962,985.406815 C-369.688962,985.406815 787.37723,-248.412603 1584.77712,682.885386 C2217.04051,1614.18338 2486.68553,1200.11726 2486.68553,1200.11726 M-373.122451,973.452479 C-373.122451,973.452479 785.437815,-260.366939 1584.05196,670.93105 C2217.52962,1602.22904 2487.41019,1188.16293 2487.41019,1188.16293 M-376.559903,961.498142 C-376.559903,961.498142 783.494435,-272.321276 1583.32285,658.976713 C2218.01477,1590.2747 2488.13088,1176.20859 2488.13088,1176.20859 M-380.001319,949.543806 C-380.001319,949.543806 781.547092,-284.275612 1582.58977,647.022377 C2218.49596,1578.32037 2488.8476,1164.25425 2488.8476,1164.25425 M-383.446699,937.58947 C-383.446699,937.58947 779.595785,-296.229949 1581.85272,635.068041 C2218.97318,1566.36603 2489.56036,1152.29992 2489.56036,1152.29992 M-386.896043,925.635133 C-386.896043,925.635133 777.640514,-308.184285 1581.11172,623.113704 C2219.44643,1554.41169 2490.26916,1140.34558 2490.26916,1140.34558 M-390.349351,913.680797 C-390.349351,913.680797 775.681279,-320.138621 1580.36675,611.159368 C2219.91573,1542.45736 2490.97399,1128.39124 2490.97399,1128.39124 M-393.806623,901.72646 C-393.806623,901.72646 773.718081,-332.092958 1579.61781,599.205031 C2220.38105,1530.50302 2491.67486,1116.43691 2491.67486,1116.43691 M-397.267858,889.772124 C-397.267858,889.772124 771.750918,-344.047294 1578.86491,587.250695 C2220.84242,1518.54868 2492.37177,1104.48257 2492.37177,1104.48257 M-400.733057,877.817788 C-400.733057,877.817788 769.779792,-356.00163 1578.10805,575.296359 C2221.29982,1506.59435 2493.06471,1092.52824 2493.06471,1092.52824 M-404.20222,865.863451 C-404.20222,865.863451 767.804702,-367.955967 1577.34722,563.342022 C2221.75326,1494.64001 2493.75369,1080.5739 2493.75369,1080.5739 M-407.675347,853.909115 C-407.675347,853.909115 765.825648,-379.910303 1576.58243,551.387686 C2222.20273,1482.68568 2494.43871,1068.61956 2494.43871,1068.61956 M-411.152438,841.954779 C-411.152438,841.954779 763.84263,-391.86464 1575.81368,539.43335 C2222.64824,1470.73134 2495.11976,1056.66523 2495.11976,1056.66523 M-414.633492,830.000442 C-414.633492,830.000442 761.855649,-403.818976 1575.04096,527.479013 C2223.08979,1458.777 2495.79684,1044.71089 2495.79684,1044.71089 M-418.118511,818.046106 C-418.118511,818.046106 759.864703,-415.773312 1574.26428,515.524677 C2223.52737,1446.82267 2496.46997,1032.75655 2496.46997,1032.75655 M-421.607493,806.091769 C-421.607493,806.091769 757.869794,-427.727649 1573.48363,503.57034 C2223.96099,1434.86833 2497.13913,1020.80222 2497.13913,1020.80222 M-425.100439,794.137433 C-425.100439,794.137433 755.870921,-439.681985 1572.69902,491.616004 C2224.39064,1422.91399 2497.80432,1008.84788 2497.80432,1008.84788 M-428.597349,782.183097 C-428.597349,782.183097 753.868084,-451.636321 1571.91045,479.661668 C2224.81633,1410.95966 2498.46555,996.893544 2498.46555,996.893544 M-432.098223,770.22876 C-432.098223,770.22876 751.861283,-463.590658 1571.11791,467.707331 C2225.23806,1399.00532 2499.12282,984.939208 2499.12282,984.939208 M-435.60306,758.274424 C-435.60306,758.274424 749.850519,-475.544994 1570.32141,455.752995 C2225.65582,1387.05098 2499.77612,972.984871 2499.77612,972.984871 M-439.111861,746.320088 C-439.111861,746.320088 747.83579,-487.499331 1569.52095,443.798659 C2226.06962,1375.09665 2500.42546,961.030535 2500.42546,961.030535 M-442.624627,734.365751 C-442.624627,734.365751 745.817098,-499.453667 1568.71652,431.844322 C2226.47946,1363.14231 2501.07084,949.076199 2501.07084,949.076199 M-446.141356,722.411415 C-446.141356,722.411415 743.794442,-511.408003 1567.90813,419.889986 C2226.88533,1351.18797 2501.71225,937.121862 2501.71225,937.121862 M-449.662049,710.457078 C-449.662049,710.457078 741.767822,-523.36234 1567.09577,407.935649 C2227.28723,1339.23364 2502.3497,925.167526 2502.3497,925.167526 M-453.186705,698.502742 C-453.186705,698.502742 739.737239,-535.316676 1566.27945,395.981313 C2227.68518,1327.2793 2502.98319,913.213189 2502.98319,913.213189 M-456.715326,686.548406 C-456.715326,686.548406 737.702691,-547.271012 1565.45917,384.026977 C2228.07916,1315.32497 2503.61271,901.258853 2503.61271,901.258853 M-460.24791,674.594069 C-460.24791,674.594069 735.66418,-559.225349 1564.63492,372.07264 C2228.46917,1303.37063 2504.23827,889.304517 2504.23827,889.304517 M-463.784458,662.639733 C-463.784458,662.639733 733.621704,-571.179685 1563.80671,360.118304 C2228.85523,1291.41629 2504.85986,877.35018 2504.85986,877.35018 M-467.32497,650.685397 C-467.32497,650.685397 731.575265,-583.134022 1562.97453,348.163968 C2229.23731,1279.46196 2505.47749,865.395844 2505.47749,865.395844 M-470.869446,638.73106 C-470.869446,638.73106 729.524862,-595.088358 1562.13839,336.209631 C2229.61544,1267.50762 2506.09115,853.441508 2506.09115,853.441508 M-474.417886,626.776724 C-474.417886,626.776724 727.470496,-607.042694 1561.29829,324.255295 C2229.9896,1255.55328 2506.70086,841.487171 2506.70086,841.487171 M-477.970289,614.822387 C-477.970289,614.822387 725.412165,-618.997031 1560.45422,312.300958 C2230.3598,1243.59895 2507.30659,829.532835 2507.30659,829.532835 M-481.526657,602.868051 C-481.526657,602.868051 723.349871,-630.951367 1559.60619,300.346622 C2230.72603,1231.64461 2507.90837,817.578498 2507.90837,817.578498 M-485.086988,590.913715 C-485.086988,590.913715 721.283613,-642.905703 1558.7542,288.392286 C2231.0883,1219.69027 2508.50618,805.624162 2508.50618,805.624162 M-488.651283,578.959378 C-488.651283,578.959378 719.213391,-654.86004 1557.89824,276.437949 C2231.4466,1207.73594 2509.10002,793.669826 2509.10002,793.669826 M-492.219542,567.005042 C-492.219542,567.005042 717.139205,-666.814376 1557.03832,264.483613 C2231.80094,1195.7816 2509.68991,781.715489 2509.68991,781.715489 M-495.791764,555.050705 C-495.791764,555.050705 715.061055,-678.768713 1556.17443,252.529277 C2232.15132,1183.82727 2510.27583,769.761153 2510.27583,769.761153 M-499.367951,543.096369 C-499.367951,543.096369 712.978941,-690.723049 1555.30658,240.57494 C2232.49774,1171.87293 2510.85778,757.806817 2510.85778,757.806817 M-502.948101,531.142033 C-502.948101,531.142033 710.892864,-702.677385 1554.43477,228.620604 C2232.84019,1159.91859 2511.43577,745.85248 2511.43577,745.85248 M-506.532215,519.187696 C-506.532215,519.187696 708.802823,-714.631722 1553.55899,216.666267 C2233.17867,1147.96426 2512.0098,733.898144 2512.0098,733.898144 M-510.120293,507.23336 C-510.120293,507.23336 706.708818,-726.586058 1552.67925,204.711931 C2233.51319,1136.00992 2512.57986,721.943807 2512.57986,721.943807 M-514,494.322244 C-514,494.322244 704.442764,-739.497174 1551.72465,191.800815 C2233.87004,1123.0988 2513.1911,709.032691 2513.1911,709.032691" id="Lines" sketch:type="MSShapeGroup"></path>
        </g>
    </g>
</svg>