<?xml version="1.0" encoding="UTF-8" standalone="no"?>
<svg width="2000px" height="1500px" viewBox="0 0 2000 1500" version="1.1" xmlns="http://www.w3.org/2000/svg" xmlns:xlink="http://www.w3.org/1999/xlink" xmlns:sketch="http://www.bohemiancoding.com/sketch/ns">
    <!-- Generator: Sketch 3.4.4 (17249) - http://www.bohemiancoding.com/sketch -->
    <title>DarkCurves</title>
    <desc>Created with Sketch.</desc>
    <defs>
        <linearGradient x1="99.2040232%" y1="71.0242692%" x2="22.1739004%" y2="21.2955966%" id="linearGradient-1">
            <stop stop-color="#7D191A" stop-opacity="0.0462805707" offset="0%"></stop>
            <stop stop-color="#7D191A" offset="33.3047672%"></stop>
            <stop stop-color="#FFFFFF" stop-opacity="0" offset="100%"></stop>
        </linearGradient>
    </defs>
    <g id="Web" stroke="none" stroke-width="1" fill="none" fill-rule="evenodd" sketch:type="MSPage">
        <g id="DarkCurves" sketch:type="MSArtboardGroup" stroke="url(#linearGradient-1)" opacity="0.199999988">
            <path d="M-84,1602.46043 C-84,1602.46043 916.5,451.460434 1392.5,1427.96043 C1868.5,2404.46043 2064.5,2005.96043 2064.5,2005.96043 M-84,1614.46043 C-84,1614.46043 916.5,463.460434 1392.5,1439.96043 C1868.5,2416.46043 2064.5,2017.96043 2064.5,2017.96043 M-84,1626.46043 C-84,1626.46043 916.5,475.460434 1392.5,1451.96043 C1868.5,2428.46043 2064.5,2029.96043 2064.5,2029.96043 M-84,1638.46043 C-84,1638.46043 916.5,487.460434 1392.5,1463.96043 C1868.5,2440.46043 2064.5,2041.96043 2064.5,2041.96043 M-84,1590.46043 C-84,1590.46043 916.5,439.460434 1392.5,1415.96043 C1868.5,2392.46043 2064.5,1993.96043 2064.5,1993.96043 M-84,1578.46043 C-84,1578.46043 916.5,427.460434 1392.5,1403.96043 C1868.5,2380.46043 2064.5,1981.96043 2064.5,1981.96043 M-84,1566.46043 C-84,1566.46043 916.5,415.460434 1392.5,1391.96043 C1868.5,2368.46043 2064.5,1969.96043 2064.5,1969.96043 M-84,1554.46043 C-84,1554.46043 916.5,403.460434 1392.5,1379.96043 C1868.5,2356.46043 2064.5,1957.96043 2064.5,1957.96043 M-84,1542.46043 C-84,1542.46043 916.5,391.460434 1392.5,1367.96043 C1868.5,2344.46043 2064.5,1945.96043 2064.5,1945.96043 M-84,1530.46043 C-84,1530.46043 916.5,379.460434 1392.5,1355.96043 C1868.5,2332.46043 2064.5,1933.96043 2064.5,1933.96043 M-84,1518.46043 C-84,1518.46043 916.5,367.460434 1392.5,1343.96043 C1868.5,2320.46043 2064.5,1921.96043 2064.5,1921.96043 M-84,1506.46043 C-84,1506.46043 916.5,355.460434 1392.5,1331.96043 C1868.5,2308.46043 2064.5,1909.96043 2064.5,1909.96043 M-84,1494.46043 C-84,1494.46043 916.5,343.460434 1392.5,1319.96043 C1868.5,2296.46043 2064.5,1897.96043 2064.5,1897.96043 M-84,1482.46043 C-84,1482.46043 916.5,331.460434 1392.5,1307.96043 C1868.5,2284.46043 2064.5,1885.96043 2064.5,1885.96043 M-84,1470.46043 C-84,1470.46043 916.5,319.460434 1392.5,1295.96043 C1868.5,2272.46043 2064.5,1873.96043 2064.5,1873.96043 M-84,1458.46043 C-84,1458.46043 916.5,307.460434 1392.5,1283.96043 C1868.5,2260.46043 2064.5,1861.96043 2064.5,1861.96043 M-84,1446.46043 C-84,1446.46043 916.5,295.460434 1392.5,1271.96043 C1868.5,2248.46043 2064.5,1849.96043 2064.5,1849.96043 M-84,1434.46043 C-84,1434.46043 916.5,283.460434 1392.5,1259.96043 C1868.5,2236.46043 2064.5,1837.96043 2064.5,1837.96043 M-84,1422.46043 C-84,1422.46043 916.5,271.460434 1392.5,1247.96043 C1868.5,2224.46043 2064.5,1825.96043 2064.5,1825.96043 M-84,1410.46043 C-84,1410.46043 916.5,259.460434 1392.5,1235.96043 C1868.5,2212.46043 2064.5,1813.96043 2064.5,1813.96043 M-84,1398.46043 C-84,1398.46043 916.5,247.460434 1392.5,1223.96043 C1868.5,2200.46043 2064.5,1801.96043 2064.5,1801.96043 M-84,1386.46043 C-84,1386.46043 916.5,235.460434 1392.5,1211.96043 C1868.5,2188.46043 2064.5,1789.96043 2064.5,1789.96043 M-84,1374.46043 C-84,1374.46043 916.5,223.460434 1392.5,1199.96043 C1868.5,2176.46043 2064.5,1777.96043 2064.5,1777.96043 M-84,1362.46043 C-84,1362.46043 916.5,211.460434 1392.5,1187.96043 C1868.5,2164.46043 2064.5,1765.96043 2064.5,1765.96043 M-84,1350.46043 C-84,1350.46043 916.5,199.460434 1392.5,1175.96043 C1868.5,2152.46043 2064.5,1753.96043 2064.5,1753.96043 M-84,1338.46043 C-84,1338.46043 916.5,187.460434 1392.5,1163.96043 C1868.5,2140.46043 2064.5,1741.96043 2064.5,1741.96043 M-84,1326.46043 C-84,1326.46043 916.5,175.460434 1392.5,1151.96043 C1868.5,2128.46043 2064.5,1729.96043 2064.5,1729.96043 M-84,1314.46043 C-84,1314.46043 916.5,163.460434 1392.5,1139.96043 C1868.5,2116.46043 2064.5,1717.96043 2064.5,1717.96043 M-84,1302.46043 C-84,1302.46043 916.5,151.460434 1392.5,1127.96043 C1868.5,2104.46043 2064.5,1705.96043 2064.5,1705.96043 M-84,1290.46043 C-84,1290.46043 916.5,139.460434 1392.5,1115.96043 C1868.5,2092.46043 2064.5,1693.96043 2064.5,1693.96043 M-84,1278.46043 C-84,1278.46043 916.5,127.460434 1392.5,1103.96043 C1868.5,2080.46043 2064.5,1681.96043 2064.5,1681.96043 M-84,1266.46043 C-84,1266.46043 916.5,115.460434 1392.5,1091.96043 C1868.5,2068.46043 2064.5,1669.96043 2064.5,1669.96043 M-84,1254.46043 C-84,1254.46043 916.5,103.460434 1392.5,1079.96043 C1868.5,2056.46043 2064.5,1657.96043 2064.5,1657.96043 M-84,1242.46043 C-84,1242.46043 916.5,91.4604344 1392.5,1067.96043 C1868.5,2044.46043 2064.5,1645.96043 2064.5,1645.96043 M-84,1230.46043 C-84,1230.46043 916.5,79.4604344 1392.5,1055.96043 C1868.5,2032.46043 2064.5,1633.96043 2064.5,1633.96043 M-84,1218.46043 C-84,1218.46043 916.5,67.4604344 1392.5,1043.96043 C1868.5,2020.46043 2064.5,1621.96043 2064.5,1621.96043 M-84,1206.46043 C-84,1206.46043 916.5,55.4604344 1392.5,1031.96043 C1868.5,2008.46043 2064.5,1609.96043 2064.5,1609.96043 M-84,1194.46043 C-84,1194.46043 916.5,43.4604344 1392.5,1019.96043 C1868.5,1996.46043 2064.5,1597.96043 2064.5,1597.96043 M-84,1182.46043 C-84,1182.46043 916.5,31.4604344 1392.5,1007.96043 C1868.5,1984.46043 2064.5,1585.96043 2064.5,1585.96043 M-84,1170.46043 C-84,1170.46043 916.5,19.4604344 1392.5,995.960434 C1868.5,1972.46043 2064.5,1573.96043 2064.5,1573.96043 M-84,1158.46043 C-84,1158.46043 916.5,7.46043444 1392.5,983.960434 C1868.5,1960.46043 2064.5,1561.96043 2064.5,1561.96043 M-84,1146.46043 C-84,1146.46043 916.5,-4.53956556 1392.5,971.960434 C1868.5,1948.46043 2064.5,1549.96043 2064.5,1549.96043 M-84,1134.46043 C-84,1134.46043 916.5,-16.5395656 1392.5,959.960434 C1868.5,1936.46043 2064.5,1537.96043 2064.5,1537.96043 M-84,1122.46043 C-84,1122.46043 916.5,-28.5395656 1392.5,947.960434 C1868.5,1924.46043 2064.5,1525.96043 2064.5,1525.96043 M-84,1110.46043 C-84,1110.46043 916.5,-40.5395656 1392.5,935.960434 C1868.5,1912.46043 2064.5,1513.96043 2064.5,1513.96043 M-84,1098.46043 C-84,1098.46043 916.5,-52.5395656 1392.5,923.960434 C1868.5,1900.46043 2064.5,1501.96043 2064.5,1501.96043 M-84,1086.46043 C-84,1086.46043 916.5,-64.5395656 1392.5,911.960434 C1868.5,1888.46043 2064.5,1489.96043 2064.5,1489.96043 M-84,1074.46043 C-84,1074.46043 916.5,-76.5395656 1392.5,899.960434 C1868.5,1876.46043 2064.5,1477.96043 2064.5,1477.96043 M-84,1062.46043 C-84,1062.46043 916.5,-88.5395656 1392.5,887.960434 C1868.5,1864.46043 2064.5,1465.96043 2064.5,1465.96043 M-84,1050.46043 C-84,1050.46043 916.5,-100.539566 1392.5,875.960434 C1868.5,1852.46043 2064.5,1453.96043 2064.5,1453.96043 M-84,1038.46043 C-84,1038.46043 916.5,-112.539566 1392.5,863.960434 C1868.5,1840.46043 2064.5,1441.96043 2064.5,1441.96043 M-84,1026.46043 C-84,1026.46043 916.5,-124.539566 1392.5,851.960434 C1868.5,1828.46043 2064.5,1429.96043 2064.5,1429.96043 M-84,1014.46043 C-84,1014.46043 916.5,-136.539566 1392.5,839.960434 C1868.5,1816.46043 2064.5,1417.96043 2064.5,1417.96043 M-84,1002.46043 C-84,1002.46043 916.5,-148.539566 1392.5,827.960434 C1868.5,1804.46043 2064.5,1405.96043 2064.5,1405.96043 M-84,990.460434 C-84,990.460434 916.5,-160.539566 1392.5,815.960434 C1868.5,1792.46043 2064.5,1393.96043 2064.5,1393.96043 M-84,978.460434 C-84,978.460434 916.5,-172.539566 1392.5,803.960434 C1868.5,1780.46043 2064.5,1381.96043 2064.5,1381.96043 M-84,966.460434 C-84,966.460434 916.5,-184.539566 1392.5,791.960434 C1868.5,1768.46043 2064.5,1369.96043 2064.5,1369.96043 M-84,954.460434 C-84,954.460434 916.5,-196.539566 1392.5,779.960434 C1868.5,1756.46043 2064.5,1357.96043 2064.5,1357.96043 M-84,942.460434 C-84,942.460434 916.5,-208.539566 1392.5,767.960434 C1868.5,1744.46043 2064.5,1345.96043 2064.5,1345.96043 M-84,930.460434 C-84,930.460434 916.5,-220.539566 1392.5,755.960434 C1868.5,1732.46043 2064.5,1333.96043 2064.5,1333.96043 M-84,918.460434 C-84,918.460434 916.5,-232.539566 1392.5,743.960434 C1868.5,1720.46043 2064.5,1321.96043 2064.5,1321.96043 M-84,906.460434 C-84,906.460434 916.5,-244.539566 1392.5,731.960434 C1868.5,1708.46043 2064.5,1309.96043 2064.5,1309.96043 M-84,894.460434 C-84,894.460434 916.5,-256.539566 1392.5,719.960434 C1868.5,1696.46043 2064.5,1297.96043 2064.5,1297.96043 M-84,882.460434 C-84,882.460434 916.5,-268.539566 1392.5,707.960434 C1868.5,1684.46043 2064.5,1285.96043 2064.5,1285.96043 M-84,870.460434 C-84,870.460434 916.5,-280.539566 1392.5,695.960434 C1868.5,1672.46043 2064.5,1273.96043 2064.5,1273.96043 M-84,858.460434 C-84,858.460434 916.5,-292.539566 1392.5,683.960434 C1868.5,1660.46043 2064.5,1261.96043 2064.5,1261.96043 M-84,846.460434 C-84,846.460434 916.5,-304.539566 1392.5,671.960434 C1868.5,1648.46043 2064.5,1249.96043 2064.5,1249.96043 M-84,834.460434 C-84,834.460434 916.5,-316.539566 1392.5,659.960434 C1868.5,1636.46043 2064.5,1237.96043 2064.5,1237.96043 M-84,822.460434 C-84,822.460434 916.5,-328.539566 1392.5,647.960434 C1868.5,1624.46043 2064.5,1225.96043 2064.5,1225.96043 M-84,810.460434 C-84,810.460434 916.5,-340.539566 1392.5,635.960434 C1868.5,1612.46043 2064.5,1213.96043 2064.5,1213.96043 M-84,798.460434 C-84,798.460434 916.5,-352.539566 1392.5,623.960434 C1868.5,1600.46043 2064.5,1201.96043 2064.5,1201.96043 M-84,786.460434 C-84,786.460434 916.5,-364.539566 1392.5,611.960434 C1868.5,1588.46043 2064.5,1189.96043 2064.5,1189.96043 M-84,774.460434 C-84,774.460434 916.5,-376.539566 1392.5,599.960434 C1868.5,1576.46043 2064.5,1177.96043 2064.5,1177.96043 M-84,762.460434 C-84,762.460434 916.5,-388.539566 1392.5,587.960434 C1868.5,1564.46043 2064.5,1165.96043 2064.5,1165.96043 M-84,750.460434 C-84,750.460434 916.5,-400.539566 1392.5,575.960434 C1868.5,1552.46043 2064.5,1153.96043 2064.5,1153.96043 M-84,738.460434 C-84,738.460434 916.5,-412.539566 1392.5,563.960434 C1868.5,1540.46043 2064.5,1141.96043 2064.5,1141.96043 M-84,726.460434 C-84,726.460434 916.5,-424.539566 1392.5,551.960434 C1868.5,1528.46043 2064.5,1129.96043 2064.5,1129.96043 M-84,714.460434 C-84,714.460434 916.5,-436.539566 1392.5,539.960434 C1868.5,1516.46043 2064.5,1117.96043 2064.5,1117.96043 M-84,702.460434 C-84,702.460434 916.5,-448.539566 1392.5,527.960434 C1868.5,1504.46043 2064.5,1105.96043 2064.5,1105.96043 M-84,690.460434 C-84,690.460434 916.5,-460.539566 1392.5,515.960434 C1868.5,1492.46043 2064.5,1093.96043 2064.5,1093.96043 M-84,678.460434 C-84,678.460434 916.5,-472.539566 1392.5,503.960434 C1868.5,1480.46043 2064.5,1081.96043 2064.5,1081.96043 M-84,666.460434 C-84,666.460434 916.5,-484.539566 1392.5,491.960434 C1868.5,1468.46043 2064.5,1069.96043 2064.5,1069.96043 M-84,654.460434 C-84,654.460434 916.5,-496.539566 1392.5,479.960434 C1868.5,1456.46043 2064.5,1057.96043 2064.5,1057.96043 M-84,642.460434 C-84,642.460434 916.5,-508.539566 1392.5,467.960434 C1868.5,1444.46043 2064.5,1045.96043 2064.5,1045.96043 M-84,630.460434 C-84,630.460434 916.5,-520.539566 1392.5,455.960434 C1868.5,1432.46043 2064.5,1033.96043 2064.5,1033.96043 M-84,618.460434 C-84,618.460434 916.5,-532.539566 1392.5,443.960434 C1868.5,1420.46043 2064.5,1021.96043 2064.5,1021.96043 M-84,606.460434 C-84,606.460434 916.5,-544.539566 1392.5,431.960434 C1868.5,1408.46043 2064.5,1009.96043 2064.5,1009.96043 M-84,594.460434 C-84,594.460434 916.5,-556.539566 1392.5,419.960434 C1868.5,1396.46043 2064.5,997.960434 2064.5,997.960434 M-84,582.460434 C-84,582.460434 916.5,-568.539566 1392.5,407.960434 C1868.5,1384.46043 2064.5,985.960434 2064.5,985.960434 M-84,570.460434 C-84,570.460434 916.5,-580.539566 1392.5,395.960434 C1868.5,1372.46043 2064.5,973.960434 2064.5,973.960434 M-84,558.460434 C-84,558.460434 916.5,-592.539566 1392.5,383.960434 C1868.5,1360.46043 2064.5,961.960434 2064.5,961.960434 M-84,546.460434 C-84,546.460434 916.5,-604.539566 1392.5,371.960434 C1868.5,1348.46043 2064.5,949.960434 2064.5,949.960434 M-84,534.460434 C-84,534.460434 916.5,-616.539566 1392.5,359.960434 C1868.5,1336.46043 2064.5,937.960434 2064.5,937.960434 M-84,522.460434 C-84,522.460434 916.5,-628.539566 1392.5,347.960434 C1868.5,1324.46043 2064.5,925.960434 2064.5,925.960434 M-84,510.460434 C-84,510.460434 916.5,-640.539566 1392.5,335.960434 C1868.5,1312.46043 2064.5,913.960434 2064.5,913.960434 M-84,498.460434 C-84,498.460434 916.5,-652.539566 1392.5,323.960434 C1868.5,1300.46043 2064.5,901.960434 2064.5,901.960434 M-84,486.460434 C-84,486.460434 916.5,-664.539566 1392.5,311.960434 C1868.5,1288.46043 2064.5,889.960434 2064.5,889.960434 M-84,474.460434 C-84,474.460434 916.5,-676.539566 1392.5,299.960434 C1868.5,1276.46043 2064.5,877.960434 2064.5,877.960434 M-84,462.460434 C-84,462.460434 916.5,-688.539566 1392.5,287.960434 C1868.5,1264.46043 2064.5,865.960434 2064.5,865.960434 M-84,450.460434 C-84,450.460434 916.5,-700.539566 1392.5,275.960434 C1868.5,1252.46043 2064.5,853.960434 2064.5,853.960434 M-84,438.460434 C-84,438.460434 916.5,-712.539566 1392.5,263.960434 C1868.5,1240.46043 2064.5,841.960434 2064.5,841.960434 M-84,426.460434 C-84,426.460434 916.5,-724.539566 1392.5,251.960434 C1868.5,1228.46043 2064.5,829.960434 2064.5,829.960434 M-84,413.5 C-84,413.5 916.5,-737.5 1392.5,239 C1868.5,1215.5 2064.5,817 2064.5,817" id="Lines" sketch:type="MSShapeGroup"></path>
        </g>
    </g>
</svg>