<?xml version="1.0" encoding="utf-8"?>
<!-- Generator: Adobe Illustrator 19.2.1, SVG Export Plug-In . SVG Version: 6.00 Build 0)  -->
<svg version="1.1" id="Layer_1" xmlns:sketch="http://www.bohemiancoding.com/sketch/ns"
	 xmlns="http://www.w3.org/2000/svg" xmlns:xlink="http://www.w3.org/1999/xlink" x="0px" y="0px" viewBox="0 0 310 103"
	 style="enable-background:new 0 0 310 103;" xml:space="preserve">
<style type="text/css">
	.st0{fill:#1A1918;}
	.st1{fill:#7C1C1F;}
</style>
<title>Diem Digital</title>
<g id="Logo" sketch:type="MSPage">
	<g id="Diem-Digital" sketch:type="MSArtboardGroup">
		<path id="Digital" sketch:type="MSShapeGroup" class="st0" d="M267.3,98V63.3h7.5v29.6h32V98H267.3z M251,98l-20.4-27.9L209.9,98
			h-8.3l26.3-34.7h5.4L259.4,98H251z M178.8,98V68.4h-20.7v-5.1h48.3v5.1h-20.1V98H178.8z M141.3,63.3h7.5v34.6h-7.5V63.3z M98.3,98
			c-9.4,0-14.1-2.5-14.1-7.5V70.8c0-5,4.7-7.5,14.1-7.5h30.9v5.1H98.3c-4.4,0-6.6,0.8-6.6,2.4v19.7c0,1.6,2.2,2.4,6.6,2.4h17.4
			c4.4,0,6.6-0.8,6.6-2.3V79.1h7.5v11.5c0,4.9-4.7,7.4-14.1,7.4H98.3z M65.3,63.3h7.5v34.6h-7.5V63.3z M46.3,73.6
			c0-1-0.1-1.8-0.3-2.5c-0.2-0.7-0.6-1.2-1.2-1.6c-0.5-0.4-1.3-0.7-2.2-0.8c-0.9-0.2-2.1-0.2-3.5-0.2H10.5v24.4h28.7
			c1.4,0,2.5-0.1,3.5-0.2c0.9-0.2,1.6-0.4,2.2-0.8c0.5-0.4,0.9-0.9,1.2-1.5c0.2-0.6,0.3-1.4,0.3-2.3V73.6z M3,98V63.3h36.2
			c2.8,0,5.1,0.2,7,0.6c1.9,0.4,3.4,1.1,4.5,1.9c1.1,0.9,1.9,1.9,2.4,3.2c0.5,1.3,0.7,2.8,0.7,4.5v14.5c0,1.6-0.2,3.1-0.7,4.3
			c-0.5,1.2-1.3,2.3-2.4,3.1c-1.1,0.8-2.6,1.4-4.5,1.9c-1.9,0.4-4.2,0.6-7,0.6H3L3,98z"/>
		<path id="DIEM" sketch:type="MSShapeGroup" class="st1" d="M233.6,3.5h8.5l28.6,43.3l28.5-43.3h7.8v53h-8.8V19.6L274,56.4h-7.5
			l-24.2-36.7v36.7h-8.8V3.5z M184.9,32.4v16.3h40.4v7.8h-49.5v-53h49.5v7.8h-40.4v13.2h38.4v7.8H184.9z M157.6,3.5h9.1v53h-9.1V3.5
			z M129.1,48.6c7.2,0,10.8-2.2,10.8-6.5V17.9c0-4.4-3.6-6.6-10.8-6.6h-33v37.3H129.1z M87,3.5h42.1c13.3,0,19.9,4.8,19.9,14.4v24.2
			c0,9.5-6.6,14.3-19.9,14.3H87V3.5L87,3.5z"/>
		<path id="Bars" sketch:type="MSShapeGroup" class="st0" d="M60,3.5h18v8H60V3.5z M60,12.5h18v8H60V12.5z M60,21.5h18v8H60V21.5z
			 M60,30.5h18v8H60V30.5z M60,39.5h18v8H60V39.5z M60,48.5h18v8H60V48.5z M41,30.5h18v8H41V30.5z M41,39.5h18v8H41V39.5z M41,48.5
			h18v8H41V48.5z M22,21.5h18v8H22V21.5z M22,30.5h18v8H22V30.5z M22,39.5h18v8H22V39.5z M22,48.5h18v8H22V48.5z M3.1,30.5H21v8H3.1
			V30.5z M3.1,39.5H21v8H3.1V39.5z M3.1,48.5H21v8H3.1V48.5z"/>
	</g>
</g>
</svg>
