<?xml version="1.0" encoding="UTF-8" standalone="no"?>
<svg width="1399px" height="1383px" viewBox="0 0 1399 1383" version="1.1" xmlns="http://www.w3.org/2000/svg" xmlns:xlink="http://www.w3.org/1999/xlink" xmlns:sketch="http://www.bohemiancoding.com/sketch/ns">
    <!-- Generator: Sketch 3.4.4 (17249) - http://www.bohemiancoding.com/sketch -->
    <title>Curves</title>
    <desc>Created with Sketch.</desc>
    <defs>
        <linearGradient x1="110.081669%" y1="97.9074938%" x2="34.5597846%" y2="168.021734%" id="linearGradient-1">
            <stop stop-color="#000000" stop-opacity="0" offset="0%"></stop>
            <stop stop-color="#872F2F" offset="53.8899431%"></stop>
            <stop stop-color="#000000" stop-opacity="0" offset="100%"></stop>
        </linearGradient>
    </defs>
    <g id="Web" stroke="none" stroke-width="1" fill="none" fill-rule="evenodd" sketch:type="MSPage">
        <g id="Site" sketch:type="MSArtboardGroup" transform="translate(-448.000000, 0.000000)" stroke="url(#linearGradient-1)" opacity="0.302588619">
            <g id="Curves" sketch:type="MSLayerGroup" transform="translate(-75.000000, -807.000000)">
                <path d="M-1.13686838e-13,913.093308 C116.499996,583.093321 317.5,1077.59331 844,953.593299 C1370.5,829.593289 1411.5,-231.406678 2116,46.0933082" id="Path-402" sketch:type="MSShapeGroup"></path>
                <path d="M-1.13686838e-13,923.093308 C116.499996,593.093321 317.5,1087.59331 844,963.593299 C1370.5,839.593289 1411.5,-221.406678 2116,56.0933082" id="Path-402-Copy" sketch:type="MSShapeGroup"></path>
                <path d="M-1.13686838e-13,933.093308 C116.499996,603.093321 317.5,1097.59331 844,973.593299 C1370.5,849.593289 1411.5,-211.406678 2116,66.0933082" id="Path-402-Copy-2" sketch:type="MSShapeGroup"></path>
                <path d="M-1.13686838e-13,943.093308 C116.499996,613.093321 317.5,1107.59331 844,983.593299 C1370.5,859.593289 1411.5,-201.406678 2116,76.0933082" id="Path-402-Copy-3" sketch:type="MSShapeGroup"></path>
                <path d="M-1.13686838e-13,953.093308 C116.499996,623.093321 317.5,1117.59331 844,993.593299 C1370.5,869.593289 1411.5,-191.406678 2116,86.0933082" id="Path-402-Copy-4" sketch:type="MSShapeGroup"></path>
                <path d="M-1.13686838e-13,963.093308 C116.499996,633.093321 317.5,1127.59331 844,1003.5933 C1370.5,879.593289 1411.5,-181.406678 2116,96.0933082" id="Path-402-Copy-5" sketch:type="MSShapeGroup"></path>
                <path d="M-1.13686838e-13,973.093308 C116.499996,643.093321 317.5,1137.59331 844,1013.5933 C1370.5,889.593289 1411.5,-171.406678 2116,106.093308" id="Path-402-Copy-6" sketch:type="MSShapeGroup"></path>
                <path d="M-1.13686838e-13,983.093308 C116.499996,653.093321 317.5,1147.59331 844,1023.5933 C1370.5,899.593289 1411.5,-161.406678 2116,116.093308" id="Path-402-Copy-7" sketch:type="MSShapeGroup"></path>
                <path d="M-1.13686838e-13,993.093308 C116.499996,663.093321 317.5,1157.59331 844,1033.5933 C1370.5,909.593289 1411.5,-151.406678 2116,126.093308" id="Path-402-Copy-8" sketch:type="MSShapeGroup"></path>
                <path d="M-1.13686838e-13,1003.09331 C116.499996,673.093321 317.5,1167.59331 844,1043.5933 C1370.5,919.593289 1411.5,-141.406678 2116,136.093308" id="Path-402-Copy-9" sketch:type="MSShapeGroup"></path>
                <path d="M-1.13686838e-13,1013.09331 C116.499996,683.093321 317.5,1177.59331 844,1053.5933 C1370.5,929.593289 1411.5,-131.406678 2116,146.093308" id="Path-402-Copy-10" sketch:type="MSShapeGroup"></path>
                <path d="M-1.13686838e-13,1023.09331 C116.499996,693.093321 317.5,1187.59331 844,1063.5933 C1370.5,939.593289 1411.5,-121.406678 2116,156.093308" id="Path-402-Copy-11" sketch:type="MSShapeGroup"></path>
                <path d="M-1.13686838e-13,1033.09331 C116.499996,703.093321 317.5,1197.59331 844,1073.5933 C1370.5,949.593289 1411.5,-111.406678 2116,166.093308" id="Path-402-Copy-12" sketch:type="MSShapeGroup"></path>
                <path d="M-1.13686838e-13,1043.09331 C116.499996,713.093321 317.5,1207.59331 844,1083.5933 C1370.5,959.593289 1411.5,-101.406678 2116,176.093308" id="Path-402-Copy-13" sketch:type="MSShapeGroup"></path>
                <path d="M-1.13686838e-13,1053.09331 C116.499996,723.093321 317.5,1217.59331 844,1093.5933 C1370.5,969.593289 1411.5,-91.4066783 2116,186.093308" id="Path-402-Copy-14" sketch:type="MSShapeGroup"></path>
                <path d="M-1.13686838e-13,1063.09331 C116.499996,733.093321 317.5,1227.59331 844,1103.5933 C1370.5,979.593289 1411.5,-81.4066783 2116,196.093308" id="Path-402-Copy-15" sketch:type="MSShapeGroup"></path>
                <path d="M-1.13686838e-13,1073.09331 C116.499996,743.093321 317.5,1237.59331 844,1113.5933 C1370.5,989.593289 1411.5,-71.4066783 2116,206.093308" id="Path-402-Copy-16" sketch:type="MSShapeGroup"></path>
                <path d="M-1.13686838e-13,1083.09331 C116.499996,753.093321 317.5,1247.59331 844,1123.5933 C1370.5,999.593289 1411.5,-61.4066783 2116,216.093308" id="Path-402-Copy-17" sketch:type="MSShapeGroup"></path>
                <path d="M-1.13686838e-13,1093.09331 C116.499996,763.093321 317.5,1257.59331 844,1133.5933 C1370.5,1009.59329 1411.5,-51.4066783 2116,226.093308" id="Path-402-Copy-18" sketch:type="MSShapeGroup"></path>
                <path d="M-1.13686838e-13,1103.09331 C116.499996,773.093321 317.5,1267.59331 844,1143.5933 C1370.5,1019.59329 1411.5,-41.4066783 2116,236.093308" id="Path-402-Copy-19" sketch:type="MSShapeGroup"></path>
                <path d="M-1.13686838e-13,1113.09331 C116.499996,783.093321 317.5,1277.59331 844,1153.5933 C1370.5,1029.59329 1411.5,-31.4066783 2116,246.093308" id="Path-402-Copy-20" sketch:type="MSShapeGroup"></path>
                <path d="M-1.13686838e-13,1123.09331 C116.499996,793.093321 317.5,1287.59331 844,1163.5933 C1370.5,1039.59329 1411.5,-21.4066783 2116,256.093308" id="Path-402-Copy-21" sketch:type="MSShapeGroup"></path>
                <path d="M-1.13686838e-13,1133.09331 C116.499996,803.093321 317.5,1297.59331 844,1173.5933 C1370.5,1049.59329 1411.5,-11.4066783 2116,266.093308" id="Path-402-Copy-22" sketch:type="MSShapeGroup"></path>
                <path d="M-1.13686838e-13,1143.09331 C116.499996,813.093321 317.5,1307.59331 844,1183.5933 C1370.5,1059.59329 1411.5,-1.40667827 2116,276.093308" id="Path-402-Copy-23" sketch:type="MSShapeGroup"></path>
                <path d="M-1.13686838e-13,1153.09331 C116.499996,823.093321 317.5,1317.59331 844,1193.5933 C1370.5,1069.59329 1411.5,8.59332173 2116,286.093308" id="Path-402-Copy-24" sketch:type="MSShapeGroup"></path>
                <path d="M-1.13686838e-13,1163.09331 C116.499996,833.093321 317.5,1327.59331 844,1203.5933 C1370.5,1079.59329 1411.5,18.5933217 2116,296.093308" id="Path-402-Copy-25" sketch:type="MSShapeGroup"></path>
                <path d="M-1.13686838e-13,1173.09331 C116.499996,843.093321 317.5,1337.59331 844,1213.5933 C1370.5,1089.59329 1411.5,28.5933217 2116,306.093308" id="Path-402-Copy-26" sketch:type="MSShapeGroup"></path>
                <path d="M-1.13686838e-13,1183.09331 C116.499996,853.093321 317.5,1347.59331 844,1223.5933 C1370.5,1099.59329 1411.5,38.5933217 2116,316.093308" id="Path-402-Copy-27" sketch:type="MSShapeGroup"></path>
                <path d="M-1.13686838e-13,1193.09331 C116.499996,863.093321 317.5,1357.59331 844,1233.5933 C1370.5,1109.59329 1411.5,48.5933217 2116,326.093308" id="Path-402-Copy-28" sketch:type="MSShapeGroup"></path>
                <path d="M-1.13686838e-13,1203.09331 C116.499996,873.093321 317.5,1367.59331 844,1243.5933 C1370.5,1119.59329 1411.5,58.5933217 2116,336.093308" id="Path-402-Copy-29" sketch:type="MSShapeGroup"></path>
                <path d="M-1.13686838e-13,1213.09331 C116.499996,883.093321 317.5,1377.59331 844,1253.5933 C1370.5,1129.59329 1411.5,68.5933217 2116,346.093308" id="Path-402-Copy-30" sketch:type="MSShapeGroup"></path>
                <path d="M-1.13686838e-13,1223.09331 C116.499996,893.093321 317.5,1387.59331 844,1263.5933 C1370.5,1139.59329 1411.5,78.5933217 2116,356.093308" id="Path-402-Copy-31" sketch:type="MSShapeGroup"></path>
                <path d="M-1.13686838e-13,1233.09331 C116.499996,903.093321 317.5,1397.59331 844,1273.5933 C1370.5,1149.59329 1411.5,88.5933217 2116,366.093308" id="Path-402-Copy-32" sketch:type="MSShapeGroup"></path>
                <path d="M-1.13686838e-13,1243.09331 C116.499996,913.093321 317.5,1407.59331 844,1283.5933 C1370.5,1159.59329 1411.5,98.5933217 2116,376.093308" id="Path-402-Copy-33" sketch:type="MSShapeGroup"></path>
                <path d="M-1.13686838e-13,1253.09331 C116.499996,923.093321 317.5,1417.59331 844,1293.5933 C1370.5,1169.59329 1411.5,108.593322 2116,386.093308" id="Path-402-Copy-34" sketch:type="MSShapeGroup"></path>
                <path d="M-1.13686838e-13,1263.09331 C116.499996,933.093321 317.5,1427.59331 844,1303.5933 C1370.5,1179.59329 1411.5,118.593322 2116,396.093308" id="Path-402-Copy-35" sketch:type="MSShapeGroup"></path>
                <path d="M-1.13686838e-13,1273.09331 C116.499996,943.093321 317.5,1437.59331 844,1313.5933 C1370.5,1189.59329 1411.5,128.593322 2116,406.093308" id="Path-402-Copy-36" sketch:type="MSShapeGroup"></path>
                <path d="M-1.13686838e-13,1283.09331 C116.499996,953.093321 317.5,1447.59331 844,1323.5933 C1370.5,1199.59329 1411.5,138.593322 2116,416.093308" id="Path-402-Copy-37" sketch:type="MSShapeGroup"></path>
                <path d="M-1.13686838e-13,1293.09331 C116.499996,963.093321 317.5,1457.59331 844,1333.5933 C1370.5,1209.59329 1411.5,148.593322 2116,426.093308" id="Path-402-Copy-38" sketch:type="MSShapeGroup"></path>
                <path d="M-1.13686838e-13,1303.09331 C116.499996,973.093321 317.5,1467.59331 844,1343.5933 C1370.5,1219.59329 1411.5,158.593322 2116,436.093308" id="Path-402-Copy-39" sketch:type="MSShapeGroup"></path>
                <path d="M-1.13686838e-13,1313.09331 C116.499996,983.093321 317.5,1477.59331 844,1353.5933 C1370.5,1229.59329 1411.5,168.593322 2116,446.093308" id="Path-402-Copy-40" sketch:type="MSShapeGroup"></path>
                <path d="M-1.13686838e-13,1323.09331 C116.499996,993.093321 317.5,1487.59331 844,1363.5933 C1370.5,1239.59329 1411.5,178.593322 2116,456.093308" id="Path-402-Copy-41" sketch:type="MSShapeGroup"></path>
                <path d="M-1.13686838e-13,1333.09331 C116.499996,1003.09332 317.5,1497.59331 844,1373.5933 C1370.5,1249.59329 1411.5,188.593322 2116,466.093308" id="Path-402-Copy-42" sketch:type="MSShapeGroup"></path>
                <path d="M-1.13686838e-13,1343.09331 C116.499996,1013.09332 317.5,1507.59331 844,1383.5933 C1370.5,1259.59329 1411.5,198.593322 2116,476.093308" id="Path-402-Copy-43" sketch:type="MSShapeGroup"></path>
                <path d="M-1.13686838e-13,1353.09331 C116.499996,1023.09332 317.5,1517.59331 844,1393.5933 C1370.5,1269.59329 1411.5,208.593322 2116,486.093308" id="Path-402-Copy-44" sketch:type="MSShapeGroup"></path>
                <path d="M-1.13686838e-13,1363.09331 C116.499996,1033.09332 317.5,1527.59331 844,1403.5933 C1370.5,1279.59329 1411.5,218.593322 2116,496.093308" id="Path-402-Copy-45" sketch:type="MSShapeGroup"></path>
                <path d="M-1.13686838e-13,1373.09331 C116.499996,1043.09332 317.5,1537.59331 844,1413.5933 C1370.5,1289.59329 1411.5,228.593322 2116,506.093308" id="Path-402-Copy-46" sketch:type="MSShapeGroup"></path>
                <path d="M-1.13686838e-13,1383.09331 C116.499996,1053.09332 317.5,1547.59331 844,1423.5933 C1370.5,1299.59329 1411.5,238.593322 2116,516.093308" id="Path-402-Copy-47" sketch:type="MSShapeGroup"></path>
                <path d="M-1.13686838e-13,1393.09331 C116.499996,1063.09332 317.5,1557.59331 844,1433.5933 C1370.5,1309.59329 1411.5,248.593322 2116,526.093308" id="Path-402-Copy-48" sketch:type="MSShapeGroup"></path>
                <path d="M-1.13686838e-13,1403.09331 C116.499996,1073.09332 317.5,1567.59331 844,1443.5933 C1370.5,1319.59329 1411.5,258.593322 2116,536.093308" id="Path-402-Copy-49" sketch:type="MSShapeGroup"></path>
                <path d="M-1.13686838e-13,1413.09331 C116.499996,1083.09332 317.5,1577.59331 844,1453.5933 C1370.5,1329.59329 1411.5,268.593322 2116,546.093308" id="Path-402-Copy-50" sketch:type="MSShapeGroup"></path>
                <path d="M-1.13686838e-13,1423.09331 C116.499996,1093.09332 317.5,1587.59331 844,1463.5933 C1370.5,1339.59329 1411.5,278.593322 2116,556.093308" id="Path-402-Copy-51" sketch:type="MSShapeGroup"></path>
                <path d="M-1.13686838e-13,1433.09331 C116.499996,1103.09332 317.5,1597.59331 844,1473.5933 C1370.5,1349.59329 1411.5,288.593322 2116,566.093308" id="Path-402-Copy-52" sketch:type="MSShapeGroup"></path>
                <path d="M-1.13686838e-13,1443.09331 C116.499996,1113.09332 317.5,1607.59331 844,1483.5933 C1370.5,1359.59329 1411.5,298.593322 2116,576.093308" id="Path-402-Copy-53" sketch:type="MSShapeGroup"></path>
                <path d="M-1.13686838e-13,1453.09331 C116.499996,1123.09332 317.5,1617.59331 844,1493.5933 C1370.5,1369.59329 1411.5,308.593322 2116,586.093308" id="Path-402-Copy-54" sketch:type="MSShapeGroup"></path>
                <path d="M-1.13686838e-13,1463.09331 C116.499996,1133.09332 317.5,1627.59331 844,1503.5933 C1370.5,1379.59329 1411.5,318.593322 2116,596.093308" id="Path-402-Copy-55" sketch:type="MSShapeGroup"></path>
                <path d="M-1.13686838e-13,1473.09331 C116.499996,1143.09332 317.5,1637.59331 844,1513.5933 C1370.5,1389.59329 1411.5,328.593322 2116,606.093308" id="Path-402-Copy-56" sketch:type="MSShapeGroup"></path>
                <path d="M-1.13686838e-13,1483.09331 C116.499996,1153.09332 317.5,1647.59331 844,1523.5933 C1370.5,1399.59329 1411.5,338.593322 2116,616.093308" id="Path-402-Copy-57" sketch:type="MSShapeGroup"></path>
                <path d="M-1.13686838e-13,1493.09331 C116.499996,1163.09332 317.5,1657.59331 844,1533.5933 C1370.5,1409.59329 1411.5,348.593322 2116,626.093308" id="Path-402-Copy-58" sketch:type="MSShapeGroup"></path>
                <path d="M-1.13686838e-13,1503.09331 C116.499996,1173.09332 317.5,1667.59331 844,1543.5933 C1370.5,1419.59329 1411.5,358.593322 2116,636.093308" id="Path-402-Copy-59" sketch:type="MSShapeGroup"></path>
                <path d="M-1.13686838e-13,1513.09331 C116.499996,1183.09332 317.5,1677.59331 844,1553.5933 C1370.5,1429.59329 1411.5,368.593322 2116,646.093308" id="Path-402-Copy-60" sketch:type="MSShapeGroup"></path>
                <path d="M-1.13686838e-13,1523.09331 C116.499996,1193.09332 317.5,1687.59331 844,1563.5933 C1370.5,1439.59329 1411.5,378.593322 2116,656.093308" id="Path-402-Copy-61" sketch:type="MSShapeGroup"></path>
                <path d="M-1.13686838e-13,1533.09331 C116.499996,1203.09332 317.5,1697.59331 844,1573.5933 C1370.5,1449.59329 1411.5,388.593322 2116,666.093308" id="Path-402-Copy-62" sketch:type="MSShapeGroup"></path>
                <path d="M-1.13686838e-13,1543.09331 C116.499996,1213.09332 317.5,1707.59331 844,1583.5933 C1370.5,1459.59329 1411.5,398.593322 2116,676.093308" id="Path-402-Copy-63" sketch:type="MSShapeGroup"></path>
                <path d="M-1.13686838e-13,1553.09331 C116.499996,1223.09332 317.5,1717.59331 844,1593.5933 C1370.5,1469.59329 1411.5,408.593322 2116,686.093308" id="Path-402-Copy-64" sketch:type="MSShapeGroup"></path>
                <path d="M-1.13686838e-13,1563.09331 C116.499996,1233.09332 317.5,1727.59331 844,1603.5933 C1370.5,1479.59329 1411.5,418.593322 2116,696.093308" id="Path-402-Copy-65" sketch:type="MSShapeGroup"></path>
                <path d="M-1.13686838e-13,1573.09331 C116.499996,1243.09332 317.5,1737.59331 844,1613.5933 C1370.5,1489.59329 1411.5,428.593322 2116,706.093308" id="Path-402-Copy-66" sketch:type="MSShapeGroup"></path>
                <path d="M-1.13686838e-13,1583.09331 C116.499996,1253.09332 317.5,1747.59331 844,1623.5933 C1370.5,1499.59329 1411.5,438.593322 2116,716.093308" id="Path-402-Copy-67" sketch:type="MSShapeGroup"></path>
                <path d="M-1.13686838e-13,1593.09331 C116.499996,1263.09332 317.5,1757.59331 844,1633.5933 C1370.5,1509.59329 1411.5,448.593322 2116,726.093308" id="Path-402-Copy-68" sketch:type="MSShapeGroup"></path>
                <path d="M-1.13686838e-13,1603.09331 C116.499996,1273.09332 317.5,1767.59331 844,1643.5933 C1370.5,1519.59329 1411.5,458.593322 2116,736.093308" id="Path-402-Copy-69" sketch:type="MSShapeGroup"></path>
                <path d="M-1.13686838e-13,1613.09331 C116.499996,1283.09332 317.5,1777.59331 844,1653.5933 C1370.5,1529.59329 1411.5,468.593322 2116,746.093308" id="Path-402-Copy-70" sketch:type="MSShapeGroup"></path>
                <path d="M-1.13686838e-13,1623.09331 C116.499996,1293.09332 317.5,1787.59331 844,1663.5933 C1370.5,1539.59329 1411.5,478.593322 2116,756.093308" id="Path-402-Copy-71" sketch:type="MSShapeGroup"></path>
                <path d="M-1.13686838e-13,1633.09331 C116.499996,1303.09332 317.5,1797.59331 844,1673.5933 C1370.5,1549.59329 1411.5,488.593322 2116,766.093308" id="Path-402-Copy-72" sketch:type="MSShapeGroup"></path>
                <path d="M-1.13686838e-13,1643.09331 C116.499996,1313.09332 317.5,1807.59331 844,1683.5933 C1370.5,1559.59329 1411.5,498.593322 2116,776.093308" id="Path-402-Copy-73" sketch:type="MSShapeGroup"></path>
                <path d="M-1.13686838e-13,1653.09331 C116.499996,1323.09332 317.5,1817.59331 844,1693.5933 C1370.5,1569.59329 1411.5,508.593322 2116,786.093308" id="Path-402-Copy-74" sketch:type="MSShapeGroup"></path>
                <path d="M-1.13686838e-13,1663.09331 C116.499996,1333.09332 317.5,1827.59331 844,1703.5933 C1370.5,1579.59329 1411.5,518.593322 2116,796.093308" id="Path-402-Copy-75" sketch:type="MSShapeGroup"></path>
                <path d="M-1.13686838e-13,1673.09331 C116.499996,1343.09332 317.5,1837.59331 844,1713.5933 C1370.5,1589.59329 1411.5,528.593322 2116,806.093308" id="Path-402-Copy-76" sketch:type="MSShapeGroup"></path>
                <path d="M-1.13686838e-13,1683.09331 C116.499996,1353.09332 317.5,1847.59331 844,1723.5933 C1370.5,1599.59329 1411.5,538.593322 2116,816.093308" id="Path-402-Copy-77" sketch:type="MSShapeGroup"></path>
                <path d="M-1.13686838e-13,1693.09331 C116.499996,1363.09332 317.5,1857.59331 844,1733.5933 C1370.5,1609.59329 1411.5,548.593322 2116,826.093308" id="Path-402-Copy-78" sketch:type="MSShapeGroup"></path>
                <path d="M-1.13686838e-13,1703.09331 C116.499996,1373.09332 317.5,1867.59331 844,1743.5933 C1370.5,1619.59329 1411.5,558.593322 2116,836.093308" id="Path-402-Copy-79" sketch:type="MSShapeGroup"></path>
                <path d="M-1.13686838e-13,1713.09331 C116.499996,1383.09332 317.5,1877.59331 844,1753.5933 C1370.5,1629.59329 1411.5,568.593322 2116,846.093308" id="Path-402-Copy-80" sketch:type="MSShapeGroup"></path>
                <path d="M-1.13686838e-13,1723.09331 C116.499996,1393.09332 317.5,1887.59331 844,1763.5933 C1370.5,1639.59329 1411.5,578.593322 2116,856.093308" id="Path-402-Copy-81" sketch:type="MSShapeGroup"></path>
                <path d="M-1.13686838e-13,1733.09331 C116.499996,1403.09332 317.5,1897.59331 844,1773.5933 C1370.5,1649.59329 1411.5,588.593322 2116,866.093308" id="Path-402-Copy-82" sketch:type="MSShapeGroup"></path>
                <path d="M-1.13686838e-13,1743.09331 C116.499996,1413.09332 317.5,1907.59331 844,1783.5933 C1370.5,1659.59329 1411.5,598.593322 2116,876.093308" id="Path-402-Copy-83" sketch:type="MSShapeGroup"></path>
                <path d="M-1.13686838e-13,1753.09331 C116.499996,1423.09332 317.5,1917.59331 844,1793.5933 C1370.5,1669.59329 1411.5,608.593322 2116,886.093308" id="Path-402-Copy-84" sketch:type="MSShapeGroup"></path>
                <path d="M-1.13686838e-13,1763.09331 C116.499996,1433.09332 317.5,1927.59331 844,1803.5933 C1370.5,1679.59329 1411.5,618.593322 2116,896.093308" id="Path-402-Copy-85" sketch:type="MSShapeGroup"></path>
                <path d="M-1.13686838e-13,1773.09331 C116.499996,1443.09332 317.5,1937.59331 844,1813.5933 C1370.5,1689.59329 1411.5,628.593322 2116,906.093308" id="Path-402-Copy-86" sketch:type="MSShapeGroup"></path>
                <path d="M-1.13686838e-13,1783.09331 C116.499996,1453.09332 317.5,1947.59331 844,1823.5933 C1370.5,1699.59329 1411.5,638.593322 2116,916.093308" id="Path-402-Copy-87" sketch:type="MSShapeGroup"></path>
                <path d="M-1.13686838e-13,1793.09331 C116.499996,1463.09332 317.5,1957.59331 844,1833.5933 C1370.5,1709.59329 1411.5,648.593322 2116,926.093308" id="Path-402-Copy-88" sketch:type="MSShapeGroup"></path>
                <path d="M-1.13686838e-13,1803.09331 C116.499996,1473.09332 317.5,1967.59331 844,1843.5933 C1370.5,1719.59329 1411.5,658.593322 2116,936.093308" id="Path-402-Copy-89" sketch:type="MSShapeGroup"></path>
                <path d="M-1.13686838e-13,1813.09331 C116.499996,1483.09332 317.5,1977.59331 844,1853.5933 C1370.5,1729.59329 1411.5,668.593322 2116,946.093308" id="Path-402-Copy-90" sketch:type="MSShapeGroup"></path>
                <path d="M-1.13686838e-13,1823.09331 C116.499996,1493.09332 317.5,1987.59331 844,1863.5933 C1370.5,1739.59329 1411.5,678.593322 2116,956.093308" id="Path-402-Copy-91" sketch:type="MSShapeGroup"></path>
                <path d="M-1.13686838e-13,1833.09331 C116.499996,1503.09332 317.5,1997.59331 844,1873.5933 C1370.5,1749.59329 1411.5,688.593322 2116,966.093308" id="Path-402-Copy-92" sketch:type="MSShapeGroup"></path>
                <path d="M-1.13686838e-13,1843.09331 C116.499996,1513.09332 317.5,2007.59331 844,1883.5933 C1370.5,1759.59329 1411.5,698.593322 2116,976.093308" id="Path-402-Copy-93" sketch:type="MSShapeGroup"></path>
                <path d="M-1.13686838e-13,1853.09331 C116.499996,1523.09332 317.5,2017.59331 844,1893.5933 C1370.5,1769.59329 1411.5,708.593322 2116,986.093308" id="Path-402-Copy-94" sketch:type="MSShapeGroup"></path>
                <path d="M-1.13686838e-13,1863.09331 C116.499996,1533.09332 317.5,2027.59331 844,1903.5933 C1370.5,1779.59329 1411.5,718.593322 2116,996.093308" id="Path-402-Copy-95" sketch:type="MSShapeGroup"></path>
                <path d="M-1.13686838e-13,1873.09331 C116.499996,1543.09332 317.5,2037.59331 844,1913.5933 C1370.5,1789.59329 1411.5,728.593322 2116,1006.09331" id="Path-402-Copy-96" sketch:type="MSShapeGroup"></path>
                <path d="M-1.13686838e-13,1883.09331 C116.499996,1553.09332 317.5,2047.59331 844,1923.5933 C1370.5,1799.59329 1411.5,738.593322 2116,1016.09331" id="Path-402-Copy-97" sketch:type="MSShapeGroup"></path>
                <path d="M-1.13686838e-13,1893.09331 C116.499996,1563.09332 317.5,2057.59331 844,1933.5933 C1370.5,1809.59329 1411.5,748.593322 2116,1026.09331" id="Path-402-Copy-98" sketch:type="MSShapeGroup"></path>
                <path d="M-1.13686838e-13,1903.09331 C116.499996,1573.09332 317.5,2067.59331 844,1943.5933 C1370.5,1819.59329 1411.5,758.593322 2116,1036.09331" id="Path-402-Copy-99" sketch:type="MSShapeGroup"></path>
                <path d="M-1.13686838e-13,1913.09331 C116.499996,1583.09332 317.5,2077.59331 844,1953.5933 C1370.5,1829.59329 1411.5,768.593322 2116,1046.09331" id="Path-402-Copy-100" sketch:type="MSShapeGroup"></path>
                <path d="M-1.13686838e-13,1923.09331 C116.499996,1593.09332 317.5,2087.59331 844,1963.5933 C1370.5,1839.59329 1411.5,778.593322 2116,1056.09331" id="Path-402-Copy-101" sketch:type="MSShapeGroup"></path>
                <path d="M-1.13686838e-13,1933.09331 C116.499996,1603.09332 317.5,2097.59331 844,1973.5933 C1370.5,1849.59329 1411.5,788.593322 2116,1066.09331" id="Path-402-Copy-102" sketch:type="MSShapeGroup"></path>
                <path d="M-1.13686838e-13,1943.09331 C116.499996,1613.09332 317.5,2107.59331 844,1983.5933 C1370.5,1859.59329 1411.5,798.593322 2116,1076.09331" id="Path-402-Copy-103" sketch:type="MSShapeGroup"></path>
                <path d="M-1.13686838e-13,1953.09331 C116.499996,1623.09332 317.5,2117.59331 844,1993.5933 C1370.5,1869.59329 1411.5,808.593322 2116,1086.09331" id="Path-402-Copy-104" sketch:type="MSShapeGroup"></path>
                <path d="M-1.13686838e-13,1963.09331 C116.499996,1633.09332 317.5,2127.59331 844,2003.5933 C1370.5,1879.59329 1411.5,818.593322 2116,1096.09331" id="Path-402-Copy-105" sketch:type="MSShapeGroup"></path>
                <path d="M-1.13686838e-13,1973.09331 C116.499996,1643.09332 317.5,2137.59331 844,2013.5933 C1370.5,1889.59329 1411.5,828.593322 2116,1106.09331" id="Path-402-Copy-106" sketch:type="MSShapeGroup"></path>
                <path d="M-1.13686838e-13,1983.09331 C116.499996,1653.09332 317.5,2147.59331 844,2023.5933 C1370.5,1899.59329 1411.5,838.593322 2116,1116.09331" id="Path-402-Copy-107" sketch:type="MSShapeGroup"></path>
                <path d="M-1.13686838e-13,1993.09331 C116.499996,1663.09332 317.5,2157.59331 844,2033.5933 C1370.5,1909.59329 1411.5,848.593322 2116,1126.09331" id="Path-402-Copy-108" sketch:type="MSShapeGroup"></path>
                <path d="M-1.13686838e-13,2003.09331 C116.499996,1673.09332 317.5,2167.59331 844,2043.5933 C1370.5,1919.59329 1411.5,858.593322 2116,1136.09331" id="Path-402-Copy-109" sketch:type="MSShapeGroup"></path>
                <path d="M-1.13686838e-13,2013.09331 C116.499996,1683.09332 317.5,2177.59331 844,2053.5933 C1370.5,1929.59329 1411.5,868.593322 2116,1146.09331" id="Path-402-Copy-110" sketch:type="MSShapeGroup"></path>
                <path d="M-1.13686838e-13,2023.09331 C116.499996,1693.09332 317.5,2187.59331 844,2063.5933 C1370.5,1939.59329 1411.5,878.593322 2116,1156.09331" id="Path-402-Copy-111" sketch:type="MSShapeGroup"></path>
                <path d="M-1.13686838e-13,2033.09331 C116.499996,1703.09332 317.5,2197.59331 844,2073.5933 C1370.5,1949.59329 1411.5,888.593322 2116,1166.09331" id="Path-402-Copy-112" sketch:type="MSShapeGroup"></path>
                <path d="M-1.13686838e-13,2043.09331 C116.499996,1713.09332 317.5,2207.59331 844,2083.5933 C1370.5,1959.59329 1411.5,898.593322 2116,1176.09331" id="Path-402-Copy-113" sketch:type="MSShapeGroup"></path>
                <path d="M-1.13686838e-13,2053.09331 C116.499996,1723.09332 317.5,2217.59331 844,2093.5933 C1370.5,1969.59329 1411.5,908.593322 2116,1186.09331" id="Path-402-Copy-114" sketch:type="MSShapeGroup"></path>
                <path d="M-1.13686838e-13,2063.09331 C116.499996,1733.09332 317.5,2227.59331 844,2103.5933 C1370.5,1979.59329 1411.5,918.593322 2116,1196.09331" id="Path-402-Copy-115" sketch:type="MSShapeGroup"></path>
                <path d="M-1.13686838e-13,2073.09331 C116.499996,1743.09332 317.5,2237.59331 844,2113.5933 C1370.5,1989.59329 1411.5,928.593322 2116,1206.09331" id="Path-402-Copy-116" sketch:type="MSShapeGroup"></path>
                <path d="M-1.13686838e-13,2083.09331 C116.499996,1753.09332 317.5,2247.59331 844,2123.5933 C1370.5,1999.59329 1411.5,938.593322 2116,1216.09331" id="Path-402-Copy-117" sketch:type="MSShapeGroup"></path>
                <path d="M-1.13686838e-13,2093.09331 C116.499996,1763.09332 317.5,2257.59331 844,2133.5933 C1370.5,2009.59329 1411.5,948.593322 2116,1226.09331" id="Path-402-Copy-118" sketch:type="MSShapeGroup"></path>
                <path d="M-1.13686838e-13,2103.09331 C116.499996,1773.09332 317.5,2267.59331 844,2143.5933 C1370.5,2019.59329 1411.5,958.593322 2116,1236.09331" id="Path-402-Copy-119" sketch:type="MSShapeGroup"></path>
                <path d="M-1.13686838e-13,2113.09331 C116.499996,1783.09332 317.5,2277.59331 844,2153.5933 C1370.5,2029.59329 1411.5,968.593322 2116,1246.09331" id="Path-402-Copy-120" sketch:type="MSShapeGroup"></path>
                <path d="M-1.13686838e-13,2123.09331 C116.499996,1793.09332 317.5,2287.59331 844,2163.5933 C1370.5,2039.59329 1411.5,978.593322 2116,1256.09331" id="Path-402-Copy-121" sketch:type="MSShapeGroup"></path>
                <path d="M-1.13686838e-13,2133.09331 C116.499996,1803.09332 317.5,2297.59331 844,2173.5933 C1370.5,2049.59329 1411.5,988.593322 2116,1266.09331" id="Path-402-Copy-122" sketch:type="MSShapeGroup"></path>
                <path d="M-1.13686838e-13,2143.09331 C116.499996,1813.09332 317.5,2307.59331 844,2183.5933 C1370.5,2059.59329 1411.5,998.593322 2116,1276.09331" id="Path-402-Copy-123" sketch:type="MSShapeGroup"></path>
                <path d="M-1.13686838e-13,2153.09331 C116.499996,1823.09332 317.5,2317.59331 844,2193.5933 C1370.5,2069.59329 1411.5,1008.59332 2116,1286.09331" id="Path-402-Copy-124" sketch:type="MSShapeGroup"></path>
                <path d="M-1.13686838e-13,2163.09331 C116.499996,1833.09332 317.5,2327.59331 844,2203.5933 C1370.5,2079.59329 1411.5,1018.59332 2116,1296.09331" id="Path-402-Copy-125" sketch:type="MSShapeGroup"></path>
                <path d="M-1.13686838e-13,2173.09331 C116.499996,1843.09332 317.5,2337.59331 844,2213.5933 C1370.5,2089.59329 1411.5,1028.59332 2116,1306.09331" id="Path-402-Copy-126" sketch:type="MSShapeGroup"></path>
                <path d="M-1.13686838e-13,2183.09331 C116.499996,1853.09332 317.5,2347.59331 844,2223.5933 C1370.5,2099.59329 1411.5,1038.59332 2116,1316.09331" id="Path-402-Copy-127" sketch:type="MSShapeGroup"></path>
                <path d="M-1.13686838e-13,2193.09331 C116.499996,1863.09332 317.5,2357.59331 844,2233.5933 C1370.5,2109.59329 1411.5,1048.59332 2116,1326.09331" id="Path-402-Copy-128" sketch:type="MSShapeGroup"></path>
                <path d="M-1.13686838e-13,2203.09331 C116.499996,1873.09332 317.5,2367.59331 844,2243.5933 C1370.5,2119.59329 1411.5,1058.59332 2116,1336.09331" id="Path-402-Copy-129" sketch:type="MSShapeGroup"></path>
                <path d="M-1.13686838e-13,2213.09331 C116.499996,1883.09332 317.5,2377.59331 844,2253.5933 C1370.5,2129.59329 1411.5,1068.59332 2116,1346.09331" id="Path-402-Copy-130" sketch:type="MSShapeGroup"></path>
                <path d="M-1.13686838e-13,2223.09331 C116.499996,1893.09332 317.5,2387.59331 844,2263.5933 C1370.5,2139.59329 1411.5,1078.59332 2116,1356.09331" id="Path-402-Copy-131" sketch:type="MSShapeGroup"></path>
                <path d="M-1.13686838e-13,2233.09331 C116.499996,1903.09332 317.5,2397.59331 844,2273.5933 C1370.5,2149.59329 1411.5,1088.59332 2116,1366.09331" id="Path-402-Copy-132" sketch:type="MSShapeGroup"></path>
                <path d="M-1.13686838e-13,2243.09331 C116.499996,1913.09332 317.5,2407.59331 844,2283.5933 C1370.5,2159.59329 1411.5,1098.59332 2116,1376.09331" id="Path-402-Copy-133" sketch:type="MSShapeGroup"></path>
                <path d="M-1.13686838e-13,2253.09331 C116.499996,1923.09332 317.5,2417.59331 844,2293.5933 C1370.5,2169.59329 1411.5,1108.59332 2116,1386.09331" id="Path-402-Copy-134" sketch:type="MSShapeGroup"></path>
                <path d="M-1.13686838e-13,2263.09331 C116.499996,1933.09332 317.5,2427.59331 844,2303.5933 C1370.5,2179.59329 1411.5,1118.59332 2116,1396.09331" id="Path-402-Copy-135" sketch:type="MSShapeGroup"></path>
                <path d="M-1.13686838e-13,2273.09331 C116.499996,1943.09332 317.5,2437.59331 844,2313.5933 C1370.5,2189.59329 1411.5,1128.59332 2116,1406.09331" id="Path-402-Copy-136" sketch:type="MSShapeGroup"></path>
                <path d="M-1.13686838e-13,2283.09331 C116.499996,1953.09332 317.5,2447.59331 844,2323.5933 C1370.5,2199.59329 1411.5,1138.59332 2116,1416.09331" id="Path-402-Copy-137" sketch:type="MSShapeGroup"></path>
                <path d="M-1.13686838e-13,2293.09331 C116.499996,1963.09332 317.5,2457.59331 844,2333.5933 C1370.5,2209.59329 1411.5,1148.59332 2116,1426.09331" id="Path-402-Copy-138" sketch:type="MSShapeGroup"></path>
                <path d="M-1.13686838e-13,2303.09331 C116.499996,1973.09332 317.5,2467.59331 844,2343.5933 C1370.5,2219.59329 1411.5,1158.59332 2116,1436.09331" id="Path-402-Copy-139" sketch:type="MSShapeGroup"></path>
                <path d="M-1.13686838e-13,2313.09331 C116.499996,1983.09332 317.5,2477.59331 844,2353.5933 C1370.5,2229.59329 1411.5,1168.59332 2116,1446.09331" id="Path-402-Copy-140" sketch:type="MSShapeGroup"></path>
            </g>
        </g>
    </g>
</svg>