<?xml version="1.0" encoding="UTF-8" standalone="no"?>
<svg width="2560px" height="1440px" viewBox="0 0 2560 1440" version="1.1" xmlns="http://www.w3.org/2000/svg" xmlns:xlink="http://www.w3.org/1999/xlink" xmlns:sketch="http://www.bohemiancoding.com/sketch/ns">
    <!-- Generator: Sketch 3.4.4 (17249) - http://www.bohemiancoding.com/sketch -->
    <title>Waves</title>
    <desc>Created with Sketch.</desc>
    <defs>
        <radialGradient cx="62.9098361%" cy="52.2344206%" fx="62.9098361%" fy="52.2344206%" r="55.7248284%" id="radialGradient-1">
            <stop stop-color="#9D191E" offset="0%"></stop>
            <stop stop-color="#4C0C0E" stop-opacity="0.625217425" offset="27.620317%"></stop>
            <stop stop-color="#000000" stop-opacity="0.272192029" offset="53.6371971%"></stop>
            <stop stop-color="#000000" stop-opacity="0" offset="100%"></stop>
        </radialGradient>
    </defs>
    <g id="Web" stroke="none" stroke-width="1" fill="none" fill-rule="evenodd" sketch:type="MSPage">
        <g id="Waves" sketch:type="MSArtboardGroup" stroke="url(#radialGradient-1)" opacity="0.652052239">
            <path d="M2654.5,-761.35157 C2654.5,-761.35157 2510,-290.351567 2054,-733.851567 C1598,-1177.35157 1115,-292.351568 635.5,-0.351568263 C156,291.648432 -60,-125.351568 -60,-125.351568 C-60,-112.351568 156,304.648432 635.5,12.6484317 C1115,-279.351568 1598,-1164.35157 2054,-720.851567 C2510,-277.351567 2654.5,-748.35157 2654.5,-748.35157 C2654.5,-735.35157 2510,-264.351567 2054,-707.851567 C1598,-1151.35157 1115,-266.351568 635.5,25.6484317 C156,317.648432 -60,-99.3515683 -60,-99.3515683 C-60,-86.3515683 156,330.648432 635.5,38.6484317 C1115,-253.351568 1598,-1138.35157 2054,-694.851567 C2510,-251.351567 2654.5,-722.35157 2654.5,-722.35157 C2654.5,-709.35157 2510,-238.351567 2054,-681.851567 C1598,-1125.35157 1115,-240.351568 635.5,51.6484317 C156,343.648432 -60,-73.3515683 -60,-73.3515683 C-60,-60.3515683 156,356.648432 635.5,64.6484317 C1115,-227.351568 1598,-1112.35157 2054,-668.851567 C2510,-225.351567 2654.5,-696.35157 2654.5,-696.35157 C2654.5,-683.35157 2510,-212.351567 2054,-655.851567 C1598,-1099.35157 1115,-214.351568 635.5,77.6484317 C156,369.648432 -60,-47.3515683 -60,-47.3515683 C-60,-34.3515683 156,382.648432 635.5,90.6484317 C1115,-201.351568 1598,-1086.35157 2054,-642.851567 C2510,-199.351567 2654.5,-670.35157 2654.5,-670.35157 C2654.5,-657.35157 2510,-186.351567 2054,-629.851567 C1598,-1073.35157 1115,-188.351568 635.5,103.648432 C156,395.648432 -60,-21.3515683 -60,-21.3515683 C-60,-8.35156826 156,408.648432 635.5,116.648432 C1115,-175.351568 1598,-1060.35157 2054,-616.851567 C2510,-173.351567 2654.5,-644.35157 2654.5,-644.35157 C2654.5,-631.35157 2510,-160.351567 2054,-603.851567 C1598,-1047.35157 1115,-162.351568 635.5,129.648432 C156,421.648432 -60,4.64843174 -60,4.64843174 C-60,17.6484317 156,434.648432 635.5,142.648432 C1115,-149.351568 1598,-1034.35157 2054,-590.851567 C2510,-147.351567 2654.5,-618.35157 2654.5,-618.35157 C2654.5,-605.35157 2510,-134.351567 2054,-577.851567 C1598,-1021.35157 1115,-136.351568 635.5,155.648432 C156,447.648432 -60,30.6484317 -60,30.6484317 C-60,43.6484317 156,460.648432 635.5,168.648432 C1115,-123.351568 1598,-1008.35157 2054,-564.851567 C2510,-121.351567 2654.5,-592.35157 2654.5,-592.35157 C2654.5,-579.35157 2510,-108.351567 2054,-551.851567 C1598,-995.351567 1115,-110.351568 635.5,181.648432 C156,473.648432 -60,56.6484317 -60,56.6484317 C-60,69.6484317 156,486.648432 635.5,194.648432 C1115,-97.3515683 1598,-982.351567 2054,-538.851567 C2510,-95.351567 2654.5,-566.35157 2654.5,-566.35157 C2654.5,-553.35157 2510,-82.351567 2054,-525.851567 C1598,-969.351567 1115,-84.3515683 635.5,207.648432 C156,499.648432 -60,82.6484317 -60,82.6484317 C-60,95.6484317 156,512.648432 635.5,220.648432 C1115,-71.3515683 1598,-956.351567 2054,-512.851567 C2510,-69.351567 2654.5,-540.35157 2654.5,-540.35157 C2654.5,-527.35157 2510,-56.351567 2054,-499.851567 C1598,-943.351567 1115,-58.3515683 635.5,233.648432 C156,525.648432 -60,108.648432 -60,108.648432 C-60,121.648432 156,538.648432 635.5,246.648432 C1115,-45.3515683 1598,-930.351567 2054,-486.851567 C2510,-43.351567 2654.5,-514.35157 2654.5,-514.35157 C2654.5,-501.35157 2510,-30.351567 2054,-473.851567 C1598,-917.351567 1115,-32.3515683 635.5,259.648432 C156,551.648432 -60,134.648432 -60,134.648432 C-60,147.648432 156,564.648432 635.5,272.648432 C1115,-19.3515683 1598,-904.351567 2054,-460.851567 C2510,-17.351567 2654.5,-488.35157 2654.5,-488.35157 C2654.5,-475.35157 2510,-4.35156705 2054,-447.851567 C1598,-891.351567 1115,-6.35156826 635.5,285.648432 C156,577.648432 -60,160.648432 -60,160.648432 C-60,173.648432 156,590.648432 635.5,298.648432 C1115,6.64843174 1598,-878.351567 2054,-434.851567 C2510,8.64843295 2654.5,-462.35157 2654.5,-462.35157 C2654.5,-449.35157 2510,21.648433 2054,-421.851567 C1598,-865.351567 1115,19.6484317 635.5,311.648432 C156,603.648432 -60,186.648432 -60,186.648432 C-60,199.648432 156,616.648432 635.5,324.648432 C1115,32.6484317 1598,-852.351567 2054,-408.851567 C2510,34.648433 2654.5,-436.35157 2654.5,-436.35157 C2654.5,-423.35157 2510,47.648433 2054,-395.851567 C1598,-839.351567 1115,45.6484317 635.5,337.648432 C156,629.648432 -60,212.648432 -60,212.648432 C-60,225.648432 156,642.648432 635.5,350.648432 C1115,58.6484317 1598,-826.351567 2054,-382.851567 C2510,60.648433 2654.5,-410.35157 2654.5,-410.35157 C2654.5,-397.35157 2510,73.648433 2054,-369.851567 C1598,-813.351567 1115,71.6484317 635.5,363.648432 C156,655.648432 -60,238.648432 -60,238.648432 C-60,251.648432 156,668.648432 635.5,376.648432 C1115,84.6484317 1598,-800.351567 2054,-356.851567 C2510,86.648433 2654.5,-384.35157 2654.5,-384.35157 C2654.5,-371.35157 2510,99.648433 2054,-343.851567 C1598,-787.351567 1115,97.6484317 635.5,389.648432 C156,681.648432 -60,264.648432 -60,264.648432 C-60,277.648432 156,694.648432 635.5,402.648432 C1115,110.648432 1598,-774.351567 2054,-330.851567 C2510,112.648433 2654.5,-358.35157 2654.5,-358.35157 C2654.5,-345.35157 2510,125.648433 2054,-317.851567 C1598,-761.351567 1115,123.648432 635.5,415.648432 C156,707.648432 -60,290.648432 -60,290.648432 C-60,303.648432 156,720.648432 635.5,428.648432 C1115,136.648432 1598,-748.351567 2054,-304.851567 C2510,138.648433 2654.5,-332.35157 2654.5,-332.35157 C2654.5,-319.35157 2510,151.648433 2054,-291.851567 C1598,-735.351567 1115,149.648432 635.5,441.648432 C156,733.648432 -60,316.648432 -60,316.648432 C-60,329.648432 156,746.648432 635.5,454.648432 C1115,162.648432 1598,-722.351567 2054,-278.851567 C2510,164.648433 2654.5,-306.35157 2654.5,-306.35157 C2654.5,-293.35157 2510,177.648433 2054,-265.851567 C1598,-709.351567 1115,175.648432 635.5,467.648432 C156,759.648432 -60,342.648432 -60,342.648432 C-60,355.648432 156,772.648432 635.5,480.648432 C1115,188.648432 1598,-696.351567 2054,-252.851567 C2510,190.648433 2654.5,-280.35157 2654.5,-280.35157 C2654.5,-267.35157 2510,203.648433 2054,-239.851567 C1598,-683.351567 1115,201.648432 635.5,493.648432 C156,785.648432 -60,368.648432 -60,368.648432 C-60,381.648432 156,798.648432 635.5,506.648432 C1115,214.648432 1598,-670.351567 2054,-226.851567 C2510,216.648433 2654.5,-254.35157 2654.5,-254.35157 C2654.5,-241.35157 2510,229.648433 2054,-213.851567 C1598,-657.351567 1115,227.648432 635.5,519.648432 C156,811.648432 -60,394.648432 -60,394.648432 C-60,407.648432 156,824.648432 635.5,532.648432 C1115,240.648432 1598,-644.351567 2054,-200.851567 C2510,242.648433 2654.5,-228.35157 2654.5,-228.35157 C2654.5,-215.35157 2510,255.648433 2054,-187.851567 C1598,-631.351567 1115,253.648432 635.5,545.648432 C156,837.648432 -60,420.648432 -60,420.648432 C-60,433.648432 156,850.648432 635.5,558.648432 C1115,266.648432 1598,-618.351567 2054,-174.851567 C2510,268.648433 2654.5,-202.35157 2654.5,-202.35157 C2654.5,-189.35157 2510,281.648433 2054,-161.851567 C1598,-605.351567 1115,279.648432 635.5,571.648432 C156,863.648432 -60,446.648432 -60,446.648432 C-60,459.648432 156,876.648432 635.5,584.648432 C1115,292.648432 1598,-592.351567 2054,-148.851567 C2510,294.648433 2654.5,-176.35157 2654.5,-176.35157 C2654.5,-163.35157 2510,307.648433 2054,-135.851567 C1598,-579.351567 1115,305.648432 635.5,597.648432 C156,889.648432 -60,472.648432 -60,472.648432 C-60,485.648432 156,902.648432 635.5,610.648432 C1115,318.648432 1598,-566.351567 2054,-122.851567 C2510,320.648433 2654.5,-150.35157 2654.5,-150.35157 C2654.5,-137.35157 2510,333.648433 2054,-109.851567 C1598,-553.351567 1115,331.648432 635.5,623.648432 C156,915.648432 -60,498.648432 -60,498.648432 C-60,511.648432 156,928.648432 635.5,636.648432 C1115,344.648432 1598,-540.351567 2054,-96.851567 C2510,346.648433 2654.5,-124.35157 2654.5,-124.35157 C2654.5,-111.35157 2510,359.648433 2054,-83.851567 C1598,-527.351567 1115,357.648432 635.5,649.648432 C156,941.648432 -60,524.648432 -60,524.648432 C-60,537.648432 156,954.648432 635.5,662.648432 C1115,370.648432 1598,-514.351567 2054,-70.851567 C2510,372.648433 2654.5,-98.3515701 2654.5,-98.3515701 C2654.5,-85.3515701 2510,385.648433 2054,-57.851567 C1598,-501.351567 1115,383.648432 635.5,675.648432 C156,967.648432 -60,550.648432 -60,550.648432 C-60,563.648432 156,980.648432 635.5,688.648432 C1115,396.648432 1598,-488.351567 2054,-44.851567 C2510,398.648433 2654.5,-72.3515701 2654.5,-72.3515701 C2654.5,-59.3515701 2510,411.648433 2054,-31.851567 C1598,-475.351567 1115,409.648432 635.5,701.648432 C156,993.648432 -60,576.648432 -60,576.648432 C-60,589.648432 156,1006.64843 635.5,714.648432 C1115,422.648432 1598,-462.351567 2054,-18.851567 C2510,424.648433 2654.5,-46.3515701 2654.5,-46.3515701 C2654.5,-33.3515701 2510,437.648433 2054,-5.85156705 C1598,-449.351567 1115,435.648432 635.5,727.648432 C156,1019.64843 -60,602.648432 -60,602.648432 C-60,615.648432 156,1032.64843 635.5,740.648432 C1115,448.648432 1598,-436.351567 2054,7.14843295 C2510,450.648433 2654.5,-20.3515701 2654.5,-20.3515701 C2654.5,-7.35157013 2510,463.648433 2054,20.148433 C1598,-423.351567 1115,461.648432 635.5,753.648432 C156,1045.64843 -60,628.648432 -60,628.648432 C-60,641.648432 156,1058.64843 635.5,766.648432 C1115,474.648432 1598,-410.351567 2054,33.148433 C2510,476.648433 2654.5,5.64842987 2654.5,5.64842987 C2654.5,18.6484299 2510,489.648433 2054,46.148433 C1598,-397.351567 1115,487.648432 635.5,779.648432 C156,1071.64843 -60,654.648432 -60,654.648432 C-60,667.648432 156,1084.64843 635.5,792.648432 C1115,500.648432 1598,-384.351567 2054,59.148433 C2510,502.648433 2654.5,31.6484299 2654.5,31.6484299 C2654.5,44.6484299 2510,515.648433 2054,72.148433 C1598,-371.351567 1115,513.648432 635.5,805.648432 C156,1097.64843 -60,680.648432 -60,680.648432 C-60,693.648432 156,1110.64843 635.5,818.648432 C1115,526.648432 1598,-358.351567 2054,85.148433 C2510,528.648433 2654.5,57.6484299 2654.5,57.6484299 C2654.5,70.6484299 2510,541.648433 2054,98.148433 C1598,-345.351567 1115,539.648432 635.5,831.648432 C156,1123.64843 -60,706.648432 -60,706.648432 C-60,719.648432 156,1136.64843 635.5,844.648432 C1115,552.648432 1598,-332.351567 2054,111.148433 C2510,554.648433 2654.5,83.6484299 2654.5,83.6484299 C2654.5,96.6484299 2510,567.648433 2054,124.148433 C1598,-319.351567 1115,565.648432 635.5,857.648432 C156,1149.64843 -60,732.648432 -60,732.648432 C-60,745.648432 156,1162.64843 635.5,870.648432 C1115,578.648432 1598,-306.351567 2054,137.148433 C2510,580.648433 2654.5,109.64843 2654.5,109.64843 C2654.5,122.64843 2510,593.648433 2054,150.148433 C1598,-293.351567 1115,591.648432 635.5,883.648432 C156,1175.64843 -60,758.648432 -60,758.648432 C-60,771.648432 156,1188.64843 635.5,896.648432 C1115,604.648432 1598,-280.351567 2054,163.148433 C2510,606.648433 2654.5,135.64843 2654.5,135.64843 C2654.5,148.64843 2510,619.648433 2054,176.148433 C1598,-267.351567 1115,617.648432 635.5,909.648432 C156,1201.64843 -60,784.648432 -60,784.648432 C-60,797.648432 156,1214.64843 635.5,922.648432 C1115,630.648432 1598,-254.351567 2054,189.148433 C2510,632.648433 2654.5,161.64843 2654.5,161.64843 C2654.5,174.64843 2510,645.648433 2054,202.148433 C1598,-241.351567 1115,643.648432 635.5,935.648432 C156,1227.64843 -60,810.648432 -60,810.648432 C-60,823.648432 156,1240.64843 635.5,948.648432 C1115,656.648432 1598,-228.351567 2054,215.148433 C2510,658.648433 2654.5,187.64843 2654.5,187.64843 C2654.5,200.64843 2510,671.648433 2054,228.148433 C1598,-215.351567 1115,669.648432 635.5,961.648432 C156,1253.64843 -60,836.648432 -60,836.648432 C-60,849.648432 156,1266.64843 635.5,974.648432 C1115,682.648432 1598,-202.351567 2054,241.148433 C2510,684.648433 2654.5,213.64843 2654.5,213.64843 C2654.5,226.64843 2510,697.648433 2054,254.148433 C1598,-189.351567 1115,695.648432 635.5,987.648432 C156,1279.64843 -60,862.648432 -60,862.648432 C-60,875.648432 156,1292.64843 635.5,1000.64843 C1115,708.648432 1598,-176.351567 2054,267.148433 C2510,710.648433 2654.5,239.64843 2654.5,239.64843 C2654.5,252.64843 2510,723.648433 2054,280.148433 C1598,-163.351567 1115,721.648432 635.5,1013.64843 C156,1305.64843 -60,888.648432 -60,888.648432 C-60,901.648432 156,1318.64843 635.5,1026.64843 C1115,734.648432 1598,-150.351567 2054,293.148433 C2510,736.648433 2654.5,265.64843 2654.5,265.64843 C2654.5,278.64843 2510,749.648433 2054,306.148433 C1598,-137.351567 1115,747.648432 635.5,1039.64843 C156,1331.64843 -60,914.648432 -60,914.648432 C-60,927.648432 156,1344.64843 635.5,1052.64843 C1115,760.648432 1598,-124.351567 2054,319.148433 C2510,762.648433 2654.5,291.64843 2654.5,291.64843 C2654.5,304.64843 2510,775.648433 2054,332.148433 C1598,-111.351567 1115,773.648432 635.5,1065.64843 C156,1357.64843 -60,940.648432 -60,940.648432 C-60,953.648432 156,1370.64843 635.5,1078.64843 C1115,786.648432 1598,-98.351567 2054,345.148433 C2510,788.648433 2654.5,317.64843 2654.5,317.64843 C2654.5,330.64843 2510,801.648433 2054,358.148433 C1598,-85.351567 1115,799.648432 635.5,1091.64843 C156,1383.64843 -60,966.648432 -60,966.648432 C-60,979.648432 156,1396.64843 635.5,1104.64843 C1115,812.648432 1598,-72.351567 2054,371.148433 C2510,814.648433 2654.5,343.64843 2654.5,343.64843 C2654.5,356.64843 2510,827.648433 2054,384.148433 C1598,-59.351567 1115,825.648432 635.5,1117.64843 C156,1409.64843 -60,992.648432 -60,992.648432 C-60,1005.64843 156,1422.64843 635.5,1130.64843 C1115,838.648432 1598,-46.351567 2054,397.148433 C2510,840.648433 2654.5,369.64843 2654.5,369.64843 C2654.5,382.64843 2510,853.648433 2054,410.148433 C1598,-33.351567 1115,851.648432 635.5,1143.64843 C156,1435.64843 -60,1018.64843 -60,1018.64843 C-60,1031.64843 156,1448.64843 635.5,1156.64843 C1115,864.648432 1598,-20.351567 2054,423.148433 C2510,866.648433 2654.5,395.64843 2654.5,395.64843 C2654.5,408.64843 2510,879.648433 2054,436.148433 C1598,-7.35156705 1115,877.648432 635.5,1169.64843 C156,1461.64843 -60,1044.64843 -60,1044.64843 C-60,1057.64843 156,1474.64843 635.5,1182.64843 C1115,890.648432 1598,5.64843295 2054,449.148433 C2510,892.648433 2654.5,421.64843 2654.5,421.64843 C2654.5,434.64843 2510,905.648433 2054,462.148433 C1598,18.648433 1115,903.648432 635.5,1195.64843 C156,1487.64843 -60,1070.64843 -60,1070.64843 C-60,1083.64843 156,1500.64843 635.5,1208.64843 C1115,916.648432 1598,31.648433 2054,475.148433 C2510,918.648433 2654.5,447.64843 2654.5,447.64843 C2654.5,460.64843 2510,931.648433 2054,488.148433 C1598,44.648433 1115,929.648432 635.5,1221.64843 C156,1513.64843 -60,1096.64843 -60,1096.64843 C-60,1109.64843 156,1526.64843 635.5,1234.64843 C1115,942.648432 1598,57.648433 2054,501.148433 C2510,944.648433 2654.5,473.64843 2654.5,473.64843 C2654.5,486.64843 2510,957.648433 2054,514.148433 C1598,70.648433 1115,955.648432 635.5,1247.64843 C156,1539.64843 -60,1122.64843 -60,1122.64843 C-60,1135.64843 156,1552.64843 635.5,1260.64843 C1115,968.648432 1598,83.648433 2054,527.148433 C2510,970.648433 2654.5,499.64843 2654.5,499.64843 C2654.5,512.64843 2510,983.648433 2054,540.148433 C1598,96.648433 1115,981.648432 635.5,1273.64843 C156,1565.64843 -60,1148.64843 -60,1148.64843 C-60,1161.64843 156,1578.64843 635.5,1286.64843 C1115,994.648432 1598,109.648433 2054,553.148433 C2510,996.648433 2654.5,525.64843 2654.5,525.64843 C2654.5,538.64843 2510,1009.64843 2054,566.148433 C1598,122.648433 1115,1007.64843 635.5,1299.64843 C156,1591.64843 -60,1174.64843 -60,1174.64843 C-60,1187.64843 156,1604.64843 635.5,1312.64843 C1115,1020.64843 1598,135.648433 2054,579.148433 C2510,1022.64843 2654.5,551.64843 2654.5,551.64843 C2654.5,564.64843 2510,1035.64843 2054,592.148433 C1598,148.648433 1115,1033.64843 635.5,1325.64843 C156,1617.64843 -60,1200.64843 -60,1200.64843 C-60,1213.64843 156,1630.64843 635.5,1338.64843 C1115,1046.64843 1598,161.648433 2054,605.148433 C2510,1048.64843 2654.5,577.64843 2654.5,577.64843 C2654.5,590.64843 2510,1061.64843 2054,618.148433 C1598,174.648433 1115,1059.64843 635.5,1351.64843 C156,1643.64843 -60,1226.64843 -60,1226.64843 C-60,1239.64843 156,1656.64843 635.5,1364.64843 C1115,1072.64843 1598,187.648433 2054,631.148433 C2510,1074.64843 2654.5,603.64843 2654.5,603.64843 C2654.5,616.64843 2510,1087.64843 2054,644.148433 C1598,200.648433 1115,1085.64843 635.5,1377.64843 C156,1669.64843 -60,1252.64843 -60,1252.64843 C-60,1265.64843 156,1682.64843 635.5,1390.64843 C1115,1098.64843 1598,213.648433 2054,657.148433 C2510,1100.64843 2654.5,629.64843 2654.5,629.64843 C2654.5,642.64843 2510,1113.64843 2054,670.148433 C1598,226.648433 1115,1111.64843 635.5,1403.64843 C156,1695.64843 -60,1278.64843 -60,1278.64843 C-60,1291.64843 156,1708.64843 635.5,1416.64843 C1115,1124.64843 1598,239.648433 2054,683.148433 C2510,1126.64843 2654.5,655.64843 2654.5,655.64843 C2654.5,668.64843 2510,1139.64843 2054,696.148433 C1598,252.648433 1115,1137.64843 635.5,1429.64843 C156,1721.64843 -60,1304.64843 -60,1304.64843 C-60,1317.64843 156,1734.64843 635.5,1442.64843 C1115,1150.64843 1598,265.648433 2054,709.148433 C2510,1152.64843 2654.5,681.64843 2654.5,681.64843 C2654.5,694.64843 2510,1165.64843 2054,722.148433 C1598,278.648433 1115,1163.64843 635.5,1455.64843 C156,1747.64843 -60,1330.64843 -60,1330.64843 C-60,1343.64843 156,1760.64843 635.5,1468.64843 C1115,1176.64843 1598,291.648433 2054,735.148433 C2510,1178.64843 2654.5,707.64843 2654.5,707.64843 C2654.5,720.64843 2510,1191.64843 2054,748.148433 C1598,304.648433 1115,1189.64843 635.5,1481.64843 C156,1773.64843 -60,1356.64843 -60,1356.64843 C-60,1369.64843 156,1786.64843 635.5,1494.64843 C1115,1202.64843 1598,317.648433 2054,761.148433 C2510,1204.64843 2654.5,733.64843 2654.5,733.64843 C2654.5,746.64843 2510,1217.64843 2054,774.148433 C1598,330.648433 1115,1215.64843 635.5,1507.64843 C156,1799.64843 -60,1382.64843 -60,1382.64843 C-60,1395.64843 156,1812.64843 635.5,1520.64843 C1115,1228.64843 1598,343.648433 2054,787.148433 C2510,1230.64843 2654.5,759.64843 2654.5,759.64843 C2654.5,772.64843 2510,1243.64843 2054,800.148433 C1598,356.648433 1115,1241.64843 635.5,1533.64843 C156,1825.64843 -60,1408.64843 -60,1408.64843 C-60,1421.64843 156,1838.64843 635.5,1546.64843 C1115,1254.64843 1598,369.648433 2054,813.148433 C2510,1256.64843 2654.5,785.64843 2654.5,785.64843 C2654.5,798.64843 2510,1269.64843 2054,826.148433 C1598,382.648433 1115,1267.64843 635.5,1559.64843 C156,1851.64843 -60,1434.64843 -60,1434.64843 C-60,1447.64843 156,1864.64843 635.5,1572.64843 C1115,1280.64843 1598,395.648433 2054,839.148433 C2510,1282.64843 2654.5,811.64843 2654.5,811.64843 C2654.5,824.64843 2510,1295.64843 2054,852.148433 C1598,408.648433 1115,1293.64843 635.5,1585.64843 C156,1877.64843 -60,1460.64843 -60,1460.64843 C-60,1473.64843 156,1890.64843 635.5,1598.64843 C1115,1306.64843 1598,421.648433 2054,865.148433 C2510,1308.64843 2654.5,837.64843 2654.5,837.64843 C2654.5,850.64843 2510,1321.64843 2054,878.148433 C1598,434.648433 1115,1319.64843 635.5,1611.64843 C156,1903.64843 -60,1486.64843 -60,1486.64843 C-60,1499.64843 156,1916.64843 635.5,1624.64843 C1115,1332.64843 1598,447.648433 2054,891.148433 C2510,1334.64843 2654.5,863.64843 2654.5,863.64843 C2654.5,876.64843 2510,1347.64843 2054,904.148433 C1598,460.648433 1115,1345.64843 635.5,1637.64843 C156,1929.64843 -60,1512.64843 -60,1512.64843 C-60,1525.64843 156,1942.64843 635.5,1650.64843 C1115,1358.64843 1598,473.648433 2054,917.148433 C2510,1360.64843 2654.5,889.64843 2654.5,889.64843 C2654.5,902.64843 2510,1373.64843 2054,930.148433 C1598,486.648433 1115,1371.64843 635.5,1663.64843 C156,1955.64843 -60,1538.64843 -60,1538.64843 C-60,1551.64843 156,1968.64843 635.5,1676.64843 C1115,1384.64843 1598,499.648433 2054,943.148433 C2510,1386.64843 2654.5,915.64843 2654.5,915.64843 C2654.5,928.64843 2510,1399.64843 2054,956.148433 C1598,512.648433 1115,1397.64843 635.5,1689.64843 C156,1981.64843 -60,1564.64843 -60,1564.64843" id="Path-546" sketch:type="MSShapeGroup"></path>
        </g>
    </g>
</svg>