<?xml version="1.0" standalone="no"?>
<!DOCTYPE svg PUBLIC "-//W3C//DTD SVG 20010904//EN"
 "http://www.w3.org/TR/2001/REC-SVG-20010904/DTD/svg10.dtd">
<svg version="1.0" xmlns="http://www.w3.org/2000/svg"
 width="1047.000000pt" height="166.000000pt" viewBox="0 0 1047.000000 166.000000"
 preserveAspectRatio="xMidYMid meet">
<metadata>
Created by potrace 1.13, written by Peter Selinger 2001-2015
</metadata>
<g transform="translate(0.000000,166.000000) scale(0.100000,-0.100000)"
fill="#000000" stroke="none">
<path d="M850 1645 c-295 -60 -547 -261 -676 -539 -96 -210 -128 -472 -79
-661 57 -221 225 -373 471 -425 123 -26 344 -22 459 9 287 76 508 284 606 569
14 40 15 54 6 58 -7 2 -118 3 -246 2 l-234 -3 -38 -75 c-45 -88 -108 -151
-176 -174 -54 -19 -150 -21 -208 -5 -55 15 -119 83 -133 142 -39 152 27 462
126 592 73 96 145 135 253 135 136 0 210 -64 227 -198 l7 -57 234 -3 c160 -2
238 1 245 8 16 16 10 157 -8 230 -70 272 -296 412 -661 409 -60 0 -139 -7
-175 -14z"/>
<path d="M6684 1645 c-376 -71 -660 -336 -759 -706 -84 -315 -37 -587 130
-754 111 -111 265 -172 462 -182 209 -11 411 36 575 133 162 96 322 282 396
461 73 175 101 413 67 569 -52 240 -210 405 -450 470 -82 22 -326 28 -421 9z
m233 -396 c116 -56 158 -221 113 -439 -39 -191 -124 -331 -235 -387 -67 -35
-176 -43 -239 -19 -59 22 -111 82 -130 147 -37 123 -8 346 63 493 46 96 132
184 203 209 66 23 173 21 225 -4z"/>
<path d="M1842 1488 c-12 -73 -33 -194 -46 -268 -88 -495 -206 -1168 -206
-1173 0 -4 104 -7 230 -7 147 0 230 4 230 10 0 6 27 162 60 348 32 185 84 479
114 652 30 173 64 367 75 430 12 63 21 121 21 128 0 9 -52 12 -228 12 l-228 0
-22 -132z"/>
<path d="M2760 1200 c-41 -11 -118 -41 -170 -66 -79 -40 -109 -62 -185 -138
-150 -150 -216 -307 -216 -516 0 -244 146 -409 409 -460 90 -18 305 -7 407 19
193 51 341 158 420 303 l26 48 -219 0 -218 0 -30 -31 c-62 -66 -167 -87 -250
-50 -58 26 -87 72 -92 143 l-4 58 435 0 436 0 7 58 c28 205 -21 388 -135 501
-69 68 -135 105 -237 131 -104 27 -279 27 -384 0z m251 -283 c48 -32 79 -83
79 -128 l0 -39 -182 -1 c-101 0 -191 -2 -200 -4 -28 -5 -31 11 -10 57 24 54
78 105 128 123 63 23 145 19 185 -8z"/>
<path d="M4105 1209 c-157 -22 -308 -95 -376 -180 -35 -44 -78 -141 -79 -176
0 -21 1 -22 213 -23 l213 -1 25 38 c36 56 81 78 159 77 41 0 77 -7 98 -17 28
-15 32 -23 32 -56 0 -31 -6 -44 -30 -65 -38 -31 -80 -43 -223 -62 -183 -23
-287 -43 -359 -68 -169 -59 -258 -160 -288 -325 -26 -145 35 -259 166 -312 53
-21 75 -24 204 -24 132 0 152 3 224 28 43 15 110 48 147 72 l69 45 0 -60 0
-60 235 0 c168 0 235 3 235 11 0 7 -10 27 -21 46 -25 40 -28 16 51 458 44 244
51 304 48 381 -3 81 -7 98 -34 140 -37 61 -123 108 -237 129 -87 16 -369 19
-472 4z m230 -701 c-33 -151 -119 -237 -238 -238 -116 0 -163 64 -109 148 22
34 63 52 202 87 163 42 153 41 145 3z"/>
<path d="M5693 1205 c-89 -27 -175 -96 -237 -190 -30 -46 -32 -36 -11 72 8 43
15 84 15 91 0 9 -48 12 -208 12 l-207 0 -32 -187 c-18 -104 -46 -264 -63 -358
-16 -93 -47 -268 -68 -388 l-38 -217 230 2 230 3 18 105 c69 403 85 457 162
536 64 66 130 88 245 83 l76 -4 37 210 c20 116 37 218 37 228 1 15 -9 17 -71
16 -40 0 -92 -6 -115 -14z"/>
<path d="M8358 1201 c-73 -24 -130 -57 -207 -122 -33 -28 -61 -47 -61 -42 0 4
6 41 14 81 l14 72 -211 -2 -211 -3 -12 -70 c-16 -91 -40 -226 -122 -693 l-68
-382 230 2 230 3 43 245 c64 368 73 410 98 460 40 79 91 110 177 110 54 0 85
-15 108 -52 33 -54 30 -75 -59 -573 -17 -93 -31 -176 -31 -182 0 -10 52 -13
229 -13 l228 0 6 43 c4 23 16 92 26 152 111 616 114 650 86 760 -23 88 -68
143 -150 185 -65 33 -73 35 -184 37 -91 2 -128 -1 -173 -16z"/>
<path d="M9470 1200 c-41 -11 -118 -41 -170 -67 -80 -39 -109 -60 -185 -137
-150 -151 -215 -307 -216 -516 -1 -294 209 -469 561 -470 250 0 439 68 580
210 36 36 78 89 93 118 l28 52 -219 0 -218 0 -30 -31 c-85 -91 -249 -90 -315
2 -20 28 -39 113 -31 137 3 9 108 12 437 12 l433 0 8 43 c22 127 0 297 -53
406 -32 66 -121 156 -190 194 -125 67 -353 88 -513 47z m251 -283 c51 -34 81
-84 77 -129 l-3 -39 -203 -2 c-129 -1 -202 2 -202 8 1 25 41 93 73 123 67 64
193 83 258 39z"/>
<path d="M10235 306 c-93 -42 -119 -169 -51 -244 32 -36 70 -52 123 -52 90 0
151 51 160 133 12 101 -45 168 -145 174 -34 2 -69 -2 -87 -11z m119 -38 c14
-6 33 -22 42 -35 20 -32 20 -104 -1 -136 -39 -61 -131 -59 -172 2 -65 96 29
216 131 169z"/>
<path d="M10240 165 c0 -85 0 -85 26 -85 18 0 25 5 23 18 -5 50 2 57 22 20 12
-25 27 -38 39 -38 24 0 25 8 3 40 -16 22 -16 24 5 38 28 19 30 67 3 82 -11 5
-42 10 -70 10 l-51 0 0 -85z"/>
</g>
</svg>
